<svg xmlns="http://www.w3.org/2000/svg" width="19.834" height="19.819" viewBox="0 0 19.834 19.819">
  <path id="Tracé_153" data-name="Tracé 153" d="M23.584-5.493l-.015-13.945a.969.969,0,0,0-1.04-1.04l-13.96.015a.967.967,0,0,0-1.011.967.975.975,0,0,0,.967.967h5.537l6.577-.19-2.52,2.285L4.058-2.358a.986.986,0,0,0-.308.688,1.029,1.029,0,0,0,1,1.011,1,1,0,0,0,.688-.293L19.512-15.044l2.285-2.5-.176,5.874v6.226a.991.991,0,0,0,.981.981A.992.992,0,0,0,23.584-5.493Z" transform="translate(-3.75 20.479)" fill="#fff"/>
</svg>
