<svg xmlns="http://www.w3.org/2000/svg" width="10.201" height="12.475" viewBox="0 0 10.201 12.475">
  <path id="Tracé_157" data-name="Tracé 157" d="M6.6-1.91a.338.338,0,0,0,.258-.117L8.918-4.043a.335.335,0,0,0,.105-.234A.319.319,0,0,0,8.7-4.6a.322.322,0,0,0-.246.111l-1,1.031-.521.539.023-.85V-10.26a.362.362,0,0,0-.357-.352.362.362,0,0,0-.357.352v6.492l.023.855-.521-.545-1-1.031A.334.334,0,0,0,4.494-4.6a.316.316,0,0,0-.328.322.319.319,0,0,0,.111.234L6.34-2.027A.338.338,0,0,0,6.6-1.91ZM3.223,1.863H9.967A1.53,1.53,0,0,0,11.7.152V-5.836A1.532,1.532,0,0,0,9.967-7.553H8.3v.727H9.949A.92.92,0,0,1,10.969-5.8V.111a.917.917,0,0,1-1.02,1.025H3.234A.911.911,0,0,1,2.221.111V-5.8A.913.913,0,0,1,3.234-6.826H4.9v-.727H3.223A1.53,1.53,0,0,0,1.494-5.836V.152A1.528,1.528,0,0,0,3.223,1.863Z" transform="translate(-1.494 10.611)" fill="#969696"/>
</svg>
