<?xml version="1.0" encoding="utf-8"?>
<!-- Generator: Adobe Illustrator 24.2.3, SVG Export Plug-In . SVG Version: 6.00 Build 0)  -->
<svg version="1.1" id="Capa_1" xmlns="http://www.w3.org/2000/svg" xmlns:xlink="http://www.w3.org/1999/xlink" x="0px" y="0px"
	 viewBox="0 0 512 512" style="enable-background:new 0 0 512 512;" xml:space="preserve">
<style type="text/css">
	.st0{fill-rule:evenodd;clip-rule:evenodd;}
</style>
<g>
	<g>
		<path class="st0" d="M512,140.8H152c-5.7,22.1-25.7,38.4-49.6,38.4c-28.3,0-51.2-22.9-51.2-51.2s22.9-51.2,51.2-51.2
			c23.9,0,43.9,16.3,49.6,38.4h360V140.8z M128,128c0,14.1-11.5,25.6-25.6,25.6S76.8,142.1,76.8,128c0-14.1,11.5-25.6,25.6-25.6
			S128,113.9,128,128L128,128z"/>
	</g>
	<g>
		<path d="M0,140.8h52.8c-1.1-4.1-1.6-8.4-1.6-12.8c0-4.4,0.6-8.7,1.6-12.8H0V140.8z"/>
	</g>
	<g>
		<path class="st0" d="M0,396.8h206.4c5.7,22.1,25.7,38.4,49.6,38.4s43.9-16.3,49.6-38.4H512l0-25.6H305.6
			c-5.7-22.1-25.7-38.4-49.6-38.4s-43.9,16.3-49.6,38.4H0V396.8z M256,409.6c14.1,0,25.6-11.5,25.6-25.6c0-14.1-11.5-25.6-25.6-25.6
			c-14.1,0-25.6,11.5-25.6,25.6C230.4,398.1,241.9,409.6,256,409.6z"/>
	</g>
	<g>
		<path class="st0" d="M0,268.8h360c5.7,22.1,25.7,38.4,49.6,38.4c23.9,0,43.9-16.3,49.6-38.4H512l0-25.6h-52.8
			c-5.7-22.1-25.7-38.4-49.6-38.4c-23.9,0-43.9,16.3-49.6,38.4H0V268.8z M409.6,281.6c14.1,0,25.6-11.5,25.6-25.6
			s-11.5-25.6-25.6-25.6c-14.1,0-25.6,11.5-25.6,25.6S395.5,281.6,409.6,281.6z"/>
	</g>
</g>
</svg>
