<svg id="Layer_1" data-name="Layer 1" xmlns="http://www.w3.org/2000/svg" width="800" height="240" viewBox="0 0 800 240"><defs><style>.cls-1{fill:#777;}.cls-2{fill:#9f224e;}.cls-3{fill:#fff;}</style></defs><title>Artboard 1</title><path class="cls-1" d="M10,222.41V187.9H22.95a16,16,0,0,1,6.34,1A8.15,8.15,0,0,1,33,192.18a8.51,8.51,0,0,1,1.35,4.55,7.83,7.83,0,0,1-1.2,4.17,8.58,8.58,0,0,1-3.62,3.15,9,9,0,0,1,4.81,3.13,8.38,8.38,0,0,1,1.68,5.22,10.07,10.07,0,0,1-1,4.51,8.73,8.73,0,0,1-2.53,3.21,10.52,10.52,0,0,1-3.78,1.71,22.92,22.92,0,0,1-5.57.58Zm4.57-20H22a16.6,16.6,0,0,0,4.35-.4A4.84,4.84,0,0,0,29,200.29a5,5,0,0,0,.88-3,5.55,5.55,0,0,0-.82-3,4.17,4.17,0,0,0-2.35-1.79,19.64,19.64,0,0,0-5.25-.48h-6.9Zm0,15.94h8.59a19.7,19.7,0,0,0,3.11-.16,7.42,7.42,0,0,0,2.64-.94,5,5,0,0,0,1.74-1.92,6,6,0,0,0,.68-2.91,5.74,5.74,0,0,0-1-3.35,5.21,5.21,0,0,0-2.74-2,17,17,0,0,0-5-.58h-8Z"/><path class="cls-1" d="M58.11,219.33a15.85,15.85,0,0,1-4.53,2.83,13.13,13.13,0,0,1-4.67.82,9.08,9.08,0,0,1-6.33-2,6.64,6.64,0,0,1-2.21-5.14,6.84,6.84,0,0,1,.84-3.35A6.91,6.91,0,0,1,43.39,210a10.3,10.3,0,0,1,3-1.39A30.46,30.46,0,0,1,50.2,208a38.74,38.74,0,0,0,7.56-1.46c0-.58,0-1,0-1.11a4.68,4.68,0,0,0-1.2-3.65,7.09,7.09,0,0,0-4.82-1.44,7.49,7.49,0,0,0-4.41,1,6.39,6.39,0,0,0-2.11,3.71l-4.14-.56a10.27,10.27,0,0,1,1.86-4.3,8.17,8.17,0,0,1,3.74-2.52,16.72,16.72,0,0,1,5.67-.88,15,15,0,0,1,5.2.75,6.86,6.86,0,0,1,2.94,1.89,6.71,6.71,0,0,1,1.32,2.88,24,24,0,0,1,.21,3.91v5.65a60.3,60.3,0,0,0,.27,7.48,9.41,9.41,0,0,0,1.07,3H59A9,9,0,0,1,58.11,219.33Zm-.35-9.46a31.2,31.2,0,0,1-6.92,1.6,16,16,0,0,0-3.69.85,3.69,3.69,0,0,0-1.67,1.38,3.74,3.74,0,0,0,.69,4.84,5.51,5.51,0,0,0,3.75,1.13,8.74,8.74,0,0,0,4.36-1.07,6.6,6.6,0,0,0,2.8-2.93,10.24,10.24,0,0,0,.68-4.23Zm-8.24-15.56,3.13-6.59h5.56L53,194.31Z"/><path class="cls-1" d="M67,209.91q0-6.95,3.86-10.29a11.64,11.64,0,0,1,7.86-2.78,11.21,11.21,0,0,1,8.43,3.38q3.27,3.38,3.27,9.33A16.54,16.54,0,0,1,89,217.15a10.25,10.25,0,0,1-4.21,4.3,12.28,12.28,0,0,1-6,1.53,11.24,11.24,0,0,1-8.49-3.37Q67,216.24,67,209.91Zm4.36,0q0,4.8,2.09,7.19a7,7,0,0,0,10.52,0q2.1-2.4,2.09-7.32,0-4.64-2.11-7a7,7,0,0,0-10.51,0Q71.39,205.11,71.39,209.91Z"/><path class="cls-1" d="M118.06,218.62l.61,3.74a15.77,15.77,0,0,1-3.2.38,7.26,7.26,0,0,1-3.58-.73,4.08,4.08,0,0,1-1.79-1.92,15.15,15.15,0,0,1-.52-5V200.71h-3.11v-3.29h3.11v-6.19l4.21-2.54v8.73h4.26v3.29H113.8v14.62a7.36,7.36,0,0,0,.22,2.33,1.77,1.77,0,0,0,.73.82,2.83,2.83,0,0,0,1.45.3A13.64,13.64,0,0,0,118.06,218.62Z"/><path class="cls-1" d="M122.23,192.78V187.9h4.24v4.87Zm0,29.63v-25h4.24v25Z"/><path class="cls-1" d="M150,214.36l4.38.54a10.68,10.68,0,0,1-3.84,6,11.54,11.54,0,0,1-7.16,2.12,11.42,11.42,0,0,1-8.7-3.38q-3.21-3.38-3.21-9.47,0-6.31,3.25-9.79a11,11,0,0,1,8.43-3.48,10.68,10.68,0,0,1,8.19,3.41q3.18,3.41,3.18,9.6c0,.25,0,.63,0,1.13H135.88a9.6,9.6,0,0,0,2.33,6.31,6.93,6.93,0,0,0,5.22,2.19,6.48,6.48,0,0,0,4-1.22A8.14,8.14,0,0,0,150,214.36Zm-6.95-24.06-2.66,4h-4.85l5.08-6.59h4.52l5.3,6.59h-4.8Zm-7,17.21h14a8.47,8.47,0,0,0-1.6-4.73,6.49,6.49,0,0,0-5.25-2.45,6.73,6.73,0,0,0-4.91,2A7.75,7.75,0,0,0,136.11,207.51Zm7.72-28.11h5.67L144.07,186h-3.41Z"/><path class="cls-1" d="M159.72,222.41v-25h3.82V201a9,9,0,0,1,8-4.12,10.45,10.45,0,0,1,4.15.81,6.55,6.55,0,0,1,2.84,2.13,8.23,8.23,0,0,1,1.32,3.13A24.24,24.24,0,0,1,180,207v15.37H175.8V207.2a11.36,11.36,0,0,0-.5-3.87,4.07,4.07,0,0,0-1.75-2,5.57,5.57,0,0,0-3-.77,6.87,6.87,0,0,0-4.67,1.72q-2,1.72-2,6.52v13.65Z"/><path class="cls-1" d="M185.75,224.48l4.12.61a3.91,3.91,0,0,0,1.44,2.78,7,7,0,0,0,4.31,1.18,7.56,7.56,0,0,0,4.54-1.18,5.8,5.8,0,0,0,2.17-3.29,27.09,27.09,0,0,0,.3-5.44,8.71,8.71,0,0,1-6.92,3.27,9.44,9.44,0,0,1-8-3.72,14.32,14.32,0,0,1-2.82-8.92,16.62,16.62,0,0,1,1.29-6.6A10.36,10.36,0,0,1,190,198.5a10.15,10.15,0,0,1,5.78-1.65,9,9,0,0,1,7.3,3.58v-3h3.91V219q0,5.84-1.19,8.27a8.69,8.69,0,0,1-3.77,3.85,13,13,0,0,1-6.34,1.41,12,12,0,0,1-7.23-2A6.81,6.81,0,0,1,185.75,224.48Zm3.51-15q0,4.92,2,7.18a6.2,6.2,0,0,0,4.9,2.26,6.26,6.26,0,0,0,4.9-2.25q2-2.25,2-7.05,0-4.59-2-6.92a6.3,6.3,0,0,0-4.91-2.33,6.12,6.12,0,0,0-4.8,2.3Q189.26,204.94,189.26,209.47Z"/><path class="cls-1" d="M237.13,222.41,223.76,187.9h4.94l9,25.07q1.08,3,1.81,5.65.8-2.82,1.86-5.65l9.32-25.07h4.66l-13.51,34.51Z"/><path class="cls-1" d="M258,192.78V187.9h4.24v4.87Zm0,29.63v-25h4.24v25Z"/><path class="cls-1" d="M285.83,214.36l4.38.54a10.68,10.68,0,0,1-3.84,6,11.54,11.54,0,0,1-7.16,2.12,11.42,11.42,0,0,1-8.7-3.38q-3.21-3.38-3.21-9.47,0-6.31,3.25-9.79a11,11,0,0,1,8.43-3.48,10.68,10.68,0,0,1,8.19,3.41q3.18,3.41,3.18,9.6c0,.25,0,.63,0,1.13H271.68A9.6,9.6,0,0,0,274,217.3a6.93,6.93,0,0,0,5.22,2.19,6.48,6.48,0,0,0,4-1.22A8.14,8.14,0,0,0,285.83,214.36Zm-6.95-24.06-2.66,4h-4.85l5.08-6.59H281l5.3,6.59h-4.8Zm-7,17.21h14a8.47,8.47,0,0,0-1.6-4.73,6.49,6.49,0,0,0-5.25-2.45,6.73,6.73,0,0,0-4.91,2A7.75,7.75,0,0,0,271.92,207.51Zm4.83,22.55v-4.82h4.82v4.82Z"/><path class="cls-1" d="M304.78,218.62l.61,3.74a15.77,15.77,0,0,1-3.2.38,7.26,7.26,0,0,1-3.58-.73,4.08,4.08,0,0,1-1.79-1.92,15.15,15.15,0,0,1-.52-5V200.71H293.2v-3.29h3.11v-6.19l4.21-2.54v8.73h4.26v3.29h-4.26v14.62a7.36,7.36,0,0,0,.22,2.33,1.77,1.77,0,0,0,.73.82,2.83,2.83,0,0,0,1.45.3A13.64,13.64,0,0,0,304.78,218.62Z"/><path class="cls-1" d="M322.31,222.41v-25h3.82V201a9,9,0,0,1,8-4.12,10.45,10.45,0,0,1,4.15.81,6.55,6.55,0,0,1,2.84,2.13,8.23,8.23,0,0,1,1.32,3.13,24.24,24.24,0,0,1,.24,4.12v15.37h-4.24V207.2a11.36,11.36,0,0,0-.5-3.87,4.07,4.07,0,0,0-1.75-2,5.57,5.57,0,0,0-3-.77,6.87,6.87,0,0,0-4.67,1.72q-2,1.72-2,6.52v13.65Z"/><path class="cls-1" d="M349.12,222.41V187.9h4.24v12.38a9.46,9.46,0,0,1,7.49-3.44,10.08,10.08,0,0,1,4.83,1.09,6.41,6.41,0,0,1,2.93,3,13.92,13.92,0,0,1,.88,5.6v15.84h-4.24V206.57q0-3.17-1.38-4.63a5.12,5.12,0,0,0-3.9-1.45,6.88,6.88,0,0,0-3.54,1,5.53,5.53,0,0,0-2.36,2.65,12.16,12.16,0,0,0-.71,4.62v13.67Z"/><path class="cls-1" d="M376,192.78V187.9h4.24v4.87Zm0,29.63v-25h4.24v25Z"/><path class="cls-1" d="M403.75,214.36l4.38.54a10.68,10.68,0,0,1-3.84,6,11.54,11.54,0,0,1-7.16,2.12,11.42,11.42,0,0,1-8.7-3.38q-3.21-3.38-3.21-9.47,0-6.31,3.25-9.79a11,11,0,0,1,8.43-3.48,10.68,10.68,0,0,1,8.19,3.41q3.18,3.41,3.18,9.6c0,.25,0,.63,0,1.13H389.6a9.6,9.6,0,0,0,2.33,6.31,6.93,6.93,0,0,0,5.22,2.19,6.48,6.48,0,0,0,4-1.22A8.14,8.14,0,0,0,403.75,214.36Zm-6.95-24.06-2.66,4H389.3l5.08-6.59h4.52l5.3,6.59h-4.8Zm-7,17.21h14a8.47,8.47,0,0,0-1.6-4.73,6.49,6.49,0,0,0-5.25-2.45,6.73,6.73,0,0,0-4.91,2A7.75,7.75,0,0,0,389.84,207.51ZM398.9,186h-3.41l-5.44-6.59h5.67Z"/><path class="cls-1" d="M429.83,222.41v-3.67A9.14,9.14,0,0,1,421.9,223a10.1,10.1,0,0,1-4.13-.85,6.78,6.78,0,0,1-2.85-2.13,8,8,0,0,1-1.31-3.14,21.57,21.57,0,0,1-.26-4V197.41h4.24v13.86a24.83,24.83,0,0,0,.26,4.47,4.42,4.42,0,0,0,1.7,2.62,5.24,5.24,0,0,0,3.2,1,7,7,0,0,0,3.58-1,5.42,5.42,0,0,0,2.36-2.66,13.32,13.32,0,0,0,.69-4.89V197.41h4.24v25Z"/><path class="cls-1" d="M453.65,222.41v-25h3.82V201a9,9,0,0,1,8-4.12,10.45,10.45,0,0,1,4.15.81,6.55,6.55,0,0,1,2.84,2.13,8.23,8.23,0,0,1,1.32,3.13A24.24,24.24,0,0,1,474,207v15.37h-4.24V207.2a11.36,11.36,0,0,0-.5-3.87,4.07,4.07,0,0,0-1.75-2,5.57,5.57,0,0,0-3-.77,6.87,6.87,0,0,0-4.67,1.72q-2,1.72-2,6.52v13.65Z"/><path class="cls-1" d="M479.68,224.48l4.12.61a3.91,3.91,0,0,0,1.44,2.78,7,7,0,0,0,4.31,1.18,7.56,7.56,0,0,0,4.54-1.18,5.8,5.8,0,0,0,2.17-3.29,27.09,27.09,0,0,0,.3-5.44,8.71,8.71,0,0,1-6.92,3.27,9.44,9.44,0,0,1-8-3.72,14.32,14.32,0,0,1-2.82-8.92,16.62,16.62,0,0,1,1.29-6.6,10.36,10.36,0,0,1,3.75-4.67,10.15,10.15,0,0,1,5.78-1.65,9,9,0,0,1,7.3,3.58v-3h3.91V219q0,5.84-1.19,8.27a8.69,8.69,0,0,1-3.77,3.85,13,13,0,0,1-6.34,1.41,12,12,0,0,1-7.23-2A6.81,6.81,0,0,1,479.68,224.48Zm3.51-15q0,4.92,2,7.18a6.2,6.2,0,0,0,4.9,2.26,6.26,6.26,0,0,0,4.9-2.25q2-2.25,2-7.05,0-4.59-2-6.92a6.3,6.3,0,0,0-4.91-2.33,6.12,6.12,0,0,0-4.8,2.3Q483.19,204.94,483.19,209.47Z"/><path class="cls-1" d="M530.36,202.33v-4.92h4.54v3.88q0,3.69-.85,5.16a8.2,8.2,0,0,1-6.61,4.23v11.72h-3.79v-3.67a9.14,9.14,0,0,1-7.93,4.24,10.17,10.17,0,0,1-4.11-.83,6.77,6.77,0,0,1-2.86-2.13,8,8,0,0,1-1.32-3.15,21.83,21.83,0,0,1-.26-4V197.41h4.24v13.86a24.36,24.36,0,0,0,.26,4.47q.82,3.58,4.9,3.58a6.91,6.91,0,0,0,3.61-1,5.43,5.43,0,0,0,2.34-2.66,13.42,13.42,0,0,0,.68-4.87V197.41h4.24V208.9a6.35,6.35,0,0,0,4.47-2.8,7.42,7.42,0,0,0,.66-3.77Z"/><path class="cls-1" d="M561.95,201.72V196.8h4.54v3.88a9.08,9.08,0,0,1-.89,4.47,10.52,10.52,0,0,1-4.21,3.72v.68q0,8.76-5.65,11.89a12.35,12.35,0,0,1-6,1.53,11,11,0,0,1-8.5-3.37q-3.22-3.48-3.22-9.7,0-6.95,3.86-10.29a11.64,11.64,0,0,1,7.86-2.78,11.23,11.23,0,0,1,8.43,3.37,11.79,11.79,0,0,1,3.08,6.61,7.26,7.26,0,0,0,2.3-2,5.49,5.49,0,0,0,.67-3.06Zm-19.63,8.19q0,4.64,2.09,7.18a7,7,0,0,0,10.52,0q2.1-2.56,2.09-7.32a10.58,10.58,0,0,0-2.12-7,7,7,0,0,0-10.5,0Q542.31,205.27,542.32,209.91Zm10.22-15.61h-3.41l-5.44-6.59h5.67Z"/><path class="cls-1" d="M571.17,192.78V187.9h4.24v4.87Zm0,29.63v-25h4.24v25Z"/><path class="cls-1" d="M592.43,222.41l9.13-13-8.45-12h5.3l3.84,5.86q1.08,1.67,1.74,2.8,1-1.55,1.91-2.75l4.21-5.91h5.06l-8.64,11.77,9.3,13.23h-5.2l-5.13-7.77-1.36-2.09-6.57,9.86Z"/><path class="cls-1" d="M636.47,214.36l4.38.54a10.68,10.68,0,0,1-3.84,6,11.54,11.54,0,0,1-7.16,2.12,11.42,11.42,0,0,1-8.7-3.38q-3.21-3.38-3.21-9.47,0-6.31,3.25-9.79a11,11,0,0,1,8.43-3.48,10.68,10.68,0,0,1,8.19,3.41q3.18,3.41,3.18,9.6c0,.25,0,.63,0,1.13H622.32a9.6,9.6,0,0,0,2.33,6.31,6.93,6.93,0,0,0,5.22,2.19,6.48,6.48,0,0,0,4-1.22A8.14,8.14,0,0,0,636.47,214.36Zm-13.91-6.85h14a8.47,8.47,0,0,0-1.6-4.73,6.49,6.49,0,0,0-5.25-2.45,6.73,6.73,0,0,0-4.91,2A7.75,7.75,0,0,0,622.55,207.51Z"/><path class="cls-1" d="M646.16,222.41v-25H650v3.51a9,9,0,0,1,3.13-3,8.82,8.82,0,0,1,4.45-1.12,8.22,8.22,0,0,1,4.55,1.15,6.2,6.2,0,0,1,2.51,3.23,9,9,0,0,1,7.72-4.38,7.6,7.6,0,0,1,5.72,2.06q2,2.06,2,6.34v17.16h-4.21V206.66a11.58,11.58,0,0,0-.41-3.66,3.55,3.55,0,0,0-1.5-1.8,4.67,4.67,0,0,0-2.54-.68,5.91,5.91,0,0,0-4.38,1.76q-1.75,1.75-1.74,5.61v14.52H661V206.17a7.12,7.12,0,0,0-1-4.23,3.92,3.92,0,0,0-3.39-1.41,6.15,6.15,0,0,0-3.31.94,5.35,5.35,0,0,0-2.2,2.75,15.51,15.51,0,0,0-.68,5.22v13Z"/><path class="cls-1" d="M699.71,222.41v-25h3.82V201a9,9,0,0,1,8-4.12,10.45,10.45,0,0,1,4.15.81,6.55,6.55,0,0,1,2.84,2.13,8.23,8.23,0,0,1,1.32,3.13A24.24,24.24,0,0,1,720,207v15.37h-4.24V207.2a11.36,11.36,0,0,0-.5-3.87,4.07,4.07,0,0,0-1.75-2,5.57,5.57,0,0,0-3-.77,6.87,6.87,0,0,0-4.67,1.72q-2,1.72-2,6.52v13.65Z"/><path class="cls-1" d="M726.52,222.41V187.9h4.24v12.38a9.46,9.46,0,0,1,7.49-3.44,10.08,10.08,0,0,1,4.83,1.09,6.41,6.41,0,0,1,2.93,3,13.92,13.92,0,0,1,.88,5.6v15.84h-4.24V206.57q0-3.17-1.38-4.63a5.12,5.12,0,0,0-3.9-1.45,6.88,6.88,0,0,0-3.54,1,5.53,5.53,0,0,0-2.36,2.65,12.16,12.16,0,0,0-.71,4.62v13.67Z"/><path class="cls-1" d="M769.64,219.33a15.85,15.85,0,0,1-4.53,2.83,13.13,13.13,0,0,1-4.67.82,9.08,9.08,0,0,1-6.33-2,6.64,6.64,0,0,1-2.21-5.14,6.84,6.84,0,0,1,.84-3.35,6.91,6.91,0,0,1,2.19-2.44,10.3,10.3,0,0,1,3-1.39,30.46,30.46,0,0,1,3.77-.64,38.74,38.74,0,0,0,7.56-1.46c0-.58,0-1,0-1.11a4.68,4.68,0,0,0-1.2-3.65,7.09,7.09,0,0,0-4.82-1.44,7.49,7.49,0,0,0-4.41,1,6.39,6.39,0,0,0-2.11,3.71l-4.14-.56a10.27,10.27,0,0,1,1.86-4.3,8.17,8.17,0,0,1,3.74-2.52,16.72,16.72,0,0,1,5.67-.88,15,15,0,0,1,5.2.75A6.86,6.86,0,0,1,772,199.5a6.71,6.71,0,0,1,1.32,2.88,24,24,0,0,1,.21,3.91v5.65a60.3,60.3,0,0,0,.27,7.48,9.41,9.41,0,0,0,1.07,3h-4.42A9,9,0,0,1,769.64,219.33Zm-6.17-29-2.66,4H756l5.08-6.59h4.52l5.3,6.59h-4.8Zm5.81,19.56a31.2,31.2,0,0,1-6.92,1.6,16,16,0,0,0-3.69.85,3.69,3.69,0,0,0-1.67,1.38,3.74,3.74,0,0,0,.69,4.84,5.51,5.51,0,0,0,3.75,1.13,8.74,8.74,0,0,0,4.36-1.07,6.6,6.6,0,0,0,2.8-2.93,10.24,10.24,0,0,0,.68-4.23Zm-5.06-30.46h5.67L764.46,186H761Z"/><path class="cls-1" d="M789.39,218.62l.61,3.74a15.77,15.77,0,0,1-3.2.38,7.26,7.26,0,0,1-3.58-.73,4.08,4.08,0,0,1-1.79-1.92,15.15,15.15,0,0,1-.52-5V200.71h-3.11v-3.29h3.11v-6.19l4.21-2.54v8.73h4.26v3.29h-4.26v14.62a7.36,7.36,0,0,0,.22,2.33,1.77,1.77,0,0,0,.73.82,2.83,2.83,0,0,0,1.45.3A13.64,13.64,0,0,0,789.39,218.62Z"/><path class="cls-1" d="M465.81,61.86H435.4V77.53h30.42c2.5,0,4.08-.31,5-1.25a5,5,0,0,0,1.26-3.45V66.56a5,5,0,0,0-1.26-3.45c-.94-.94-2.52-1.26-5-1.26Zm-43.9,48.28V51.82h50.17c4.39,0,7.84.94,10,2.82,1.89,1.57,3.14,4.7,3.14,8.47V76.27c0,3.77-1.26,6.9-3.14,8.47-2.19,1.89-5.64,2.82-10,2.82H435.4v22.57Z"/><path class="cls-1" d="M540.53,61.86H510.1v16.3h30.43c2.5,0,4.08-.32,5-.94a5.3,5.3,0,0,0,1.26-3.77v-6.9a5,5,0,0,0-1.26-3.45c-.94-.94-2.51-1.26-5-1.26Zm-43.9,48.28V51.82h49.87c4.71,0,8.14.94,10.33,2.82,1.89,1.57,3.15,4.7,3.15,8.47V76.9c0,4.07-1.26,6.9-3.15,8.47-2.19,1.88-5.63,2.82-10.33,2.82H539l27,21.95H546.5L523,88.19H510.11v21.95H496.63Z"/><polygon class="cls-1" points="575.97 110.14 575.97 51.82 635.85 51.82 635.85 61.86 589.76 61.86 589.76 74.71 616.71 74.71 616.71 84.74 589.76 84.74 589.76 99.16 636.47 99.16 636.47 110.14 575.97 110.14"/><path class="cls-1" d="M700.18,62.17H661.93V74.71H698.3c5.64,0,9.72.94,11.6,2.82,2.18,1.89,3.13,5.65,3.13,11v7.84c0,5.32-.95,9.09-3.13,11-1.89,1.88-6,2.82-11.6,2.82H662.25c-5.65,0-9.4-.94-11.61-2.82-1.88-1.89-2.82-5.65-2.82-11V94.77l11.92-2.5v6.89H700.8V86H664.42c-5.63,0-9.39-.94-11.28-3.13C650.94,81,650,77.53,650,72.2V65.62c0-5.33.95-8.77,3.15-10.66,1.89-2.2,5.64-3.13,11.28-3.13h33.23q8.47,0,11.3,2.82c2.18,1.88,3.12,5.33,3.12,10v1.26l-11.91,2.82V62.17Z"/><path class="cls-1" d="M777.45,62.17H739.22V74.71h36.37c5.64,0,9.4.94,11.59,2.82,1.89,1.89,2.83,5.65,2.83,11v7.84c0,5.32-.94,9.09-2.83,11-2.19,1.88-5.94,2.82-11.59,2.82H739.53c-5.64,0-9.72-.94-11.61-2.82-2.2-1.89-3.13-5.65-3.13-11V94.77l11.92-2.5v6.89h41.37V86H741.72c-5.64,0-9.41-.94-11.6-3.13-1.89-1.89-2.83-5.33-2.83-10.66V65.62c0-5.33.94-8.77,2.83-10.66,2.19-2.2,6-3.13,11.6-3.13H775q8,0,11.28,2.82c2.2,1.88,3.14,5.33,3.14,10v1.26l-11.93,2.82V62.17Z"/><polygon class="cls-1" points="333.57 110.14 361.16 80.35 332.94 51.82 351.13 51.82 369.63 71.57 387.5 51.82 402.86 51.82 377.47 78.78 409.13 110.14 390.63 110.14 369.32 87.56 349.56 110.14 333.57 110.14"/><polygon class="cls-1" points="43.86 110.14 10 51.82 25.68 51.82 49.19 94.14 71.77 51.82 85.24 51.82 53.27 110.14 43.86 110.14"/><path class="cls-1" d="M95.88,110.14V51.82H105L146,86.31a45.94,45.94,0,0,1,3.77,3.13,29.76,29.76,0,0,1,3.14,3.13c-.32-3.13-.63-5.64-.63-6.89V51.82h12.23v58.31h-9.4l-43-36.05a19,19,0,0,1-2.51-2.51,7.17,7.17,0,0,1-2.19-2.19,30.54,30.54,0,0,1,.31,5.33,19.34,19.34,0,0,1,.31,4.08v31.35Z"/><path class="cls-2" d="M314.06,147.39a7,7,0,0,1-7,7H190.44a7,7,0,0,1-7-7V14.44a7,7,0,0,1,7-7H307.06a7,7,0,0,1,7,7Z"/><path class="cls-3" d="M239.41,51.76h56.65c3.87,0,6.32-2.89,6.32-6.75V26.35c0-3.87-2.45-7.24-6.32-7.24h-93.3c-3.87,0-7.67,3.38-7.67,7.24V136c0,3.87,3.81,6.75,7.67,6.75h93.3c3.87,0,6.32-2.89,6.32-6.75V117.32c0-3.87-2.45-7.24-6.32-7.24H239.41V98.41h19.34c3.87,0,6.32-2.89,6.32-6.75v-21c0-3.87-2.46-7.24-6.32-7.24H239.41V51.76Zm.67,18.66h18v21H232.41v25.66h63v18.66h-93.3V26.1h93.3V44.76h-63V70.42h7.67Z"/></svg>