<?xml version="1.0" encoding="utf-8"?>
<!-- Generator: Adobe Illustrator 19.0.0, SVG Export Plug-In . SVG Version: 6.00 Build 0)  -->
<svg version="1.1" id="Layer_1" xmlns="http://www.w3.org/2000/svg" xmlns:xlink="http://www.w3.org/1999/xlink" x="0px" y="0px"
	 viewBox="0 0 335 63.4" style="enable-background:new 0 0 335 63.4;" xml:space="preserve">
<style type="text/css">
	.st0{fill-rule:evenodd;clip-rule:evenodd;fill:#A32B51;}
	.st1{fill-rule:evenodd;clip-rule:evenodd;fill:#9F224E;}
	.st2{fill:#9F224E;}
	.st3{fill-rule:evenodd;clip-rule:evenodd;fill:#FFFFFF;}
	.st4{fill:#FFFFFF;}
	.st5{fill-rule:evenodd;clip-rule:evenodd;fill:#989898;}
</style>
<g>
	<polygon class="st0" points="94.9,26.7 106.1,26.7 106.1,34.5 94.9,34.5 94.9,26.7 	"/>
	<g>
		<g>
			<polygon class="st1" points="77.6,3.5 127,3.5 127,59.9 77.6,59.9 77.6,3.5 			"/>
			<path class="st2" d="M127,63.4H77.6c-1.9,0-3.5-1.6-3.5-3.5V3.5c0-1.9,1.6-3.5,3.5-3.5H127c1.9,0,3.5,1.6,3.5,3.5v56.4
				C130.5,61.9,128.9,63.4,127,63.4z M81.1,56.4h42.4V7H81.1V56.4z"/>
		</g>
		<polygon class="st3" points="93.6,35.6 93.6,45.9 121.8,45.9 121.8,54.6 82.8,54.6 82.8,8.6 121.3,8.6 121.3,16.4 93.6,16.4 
			93.6,26 107.9,26 107.9,35.7 93.6,35.6 		"/>
		<g>
			<path class="st4" d="M121.8,58.1H82.8c-1.9,0-3.5-1.6-3.5-3.5v-46c0-1.9,1.6-3.5,3.5-3.5h38.5c1.9,0,3.5,1.6,3.5,3.5v7.8
				c0,1.9-1.6,3.5-3.5,3.5H97.1v2.6h10.8c1.9,0,3.5,1.6,3.5,3.5v9.6c0,0.9-0.4,1.8-1,2.5c-0.7,0.7-1.6,0.9-2.5,1l-10.7-0.1v3.3h24.7
				c1.9,0,3.5,1.6,3.5,3.5v8.7C125.3,56.5,123.7,58.1,121.8,58.1z M86.3,51.1h32v-1.7H93.6c-1.9,0-3.5-1.6-3.5-3.5V35.6
				c0-0.9,0.4-1.8,1-2.5c0.7-0.7,1.6-1.1,2.5-1l10.7,0.1v-2.6H93.6c-1.9,0-3.5-1.6-3.5-3.5v-9.6c0-1.9,1.6-3.5,3.5-3.5h24.2v-0.8
				H86.3V51.1z"/>
			<polygon class="st1" points="93.3,35.7 93.3,46.4 122.5,46.4 122.5,55.4 82.1,55.4 82.1,7.8 122,7.8 122,15.9 93.3,15.9 
				93.3,25.8 108.1,25.8 108.1,35.8 93.3,35.7 			"/>
		</g>
	</g>
	<g>
		<path class="st5" d="M193.9,23.3h-13.4v6.9h13.4c1.1,0,1.8-0.1,2.2-0.6c0.3-0.3,0.6-0.8,0.6-1.5v-2.8c0-0.7-0.3-1.2-0.6-1.5
			C195.7,23.4,195,23.3,193.9,23.3L193.9,23.3z M174.5,44.6V18.8h22.1c1.9,0,3.5,0.4,4.4,1.2c0.8,0.7,1.4,2.1,1.4,3.7v5.8
			c0,1.7-0.6,3-1.4,3.7c-1,0.8-2.5,1.2-4.4,1.2h-16.2v10H174.5L174.5,44.6z"/>
		<path class="st5" d="M226.9,23.3h-13.4v7.2h13.4c1.1,0,1.8-0.1,2.2-0.4c0.3-0.3,0.6-0.8,0.6-1.7v-3c0-0.7-0.3-1.2-0.6-1.5
			C228.7,23.4,228,23.3,226.9,23.3L226.9,23.3z M207.5,44.6V18.8h22c2.1,0,3.6,0.4,4.6,1.2c0.8,0.7,1.4,2.1,1.4,3.7v6.1
			c0,1.8-0.6,3-1.4,3.7c-1,0.8-2.5,1.2-4.6,1.2h-3.3l11.9,9.7h-8.6l-10.4-9.7h-5.7v9.7H207.5L207.5,44.6z"/>
		<polygon class="st5" points="242.5,44.6 242.5,18.8 269,18.8 269,23.3 248.6,23.3 248.6,28.9 260.5,28.9 260.5,33.4 248.6,33.4 
			248.6,39.7 269.2,39.7 269.2,44.6 242.5,44.6 		"/>
		<path class="st5" d="M296.3,23.4h-16.9v5.5h16.1c2.5,0,4.3,0.4,5.1,1.2c1,0.8,1.4,2.5,1.4,4.8v3.5c0,2.3-0.4,4-1.4,4.8
			c-0.8,0.8-2.6,1.2-5.1,1.2h-15.9c-2.5,0-4.1-0.4-5.1-1.2c-0.8-0.8-1.2-2.5-1.2-4.8v-0.7l5.3-1.1v3h18.1v-5.8h-16.1
			c-2.5,0-4.1-0.4-5-1.4c-1-0.8-1.4-2.4-1.4-4.7v-2.9c0-2.4,0.4-3.9,1.4-4.7c0.8-1,2.5-1.4,5-1.4h14.7c2.5,0,4.2,0.4,5,1.2
			c1,0.8,1.4,2.4,1.4,4.4v0.6l-5.3,1.2V23.4L296.3,23.4z"/>
		<path class="st5" d="M329.5,23.4h-16.9v5.5h16c2.5,0,4.2,0.4,5.1,1.2c0.8,0.8,1.2,2.5,1.2,4.8v3.5c0,2.3-0.4,4-1.2,4.8
			c-1,0.8-2.6,1.2-5.1,1.2h-15.9c-2.5,0-4.3-0.4-5.1-1.2c-1-0.8-1.4-2.5-1.4-4.8v-0.7l5.3-1.1v3h18.3v-5.8h-16
			c-2.5,0-4.2-0.4-5.1-1.4c-0.8-0.8-1.3-2.4-1.3-4.7v-2.9c0-2.4,0.4-3.9,1.3-4.7c1-1,2.6-1.4,5.1-1.4h14.7c2.4,0,4,0.4,5,1.2
			c1,0.8,1.4,2.4,1.4,4.4v0.6l-5.3,1.2V23.4L329.5,23.4z"/>
		<polygon class="st5" points="136.1,44.6 148.3,31.4 135.9,18.8 143.9,18.8 152,27.6 159.9,18.8 166.7,18.8 155.5,30.7 169.5,44.6 
			161.3,44.6 151.9,34.6 143.2,44.6 136.1,44.6 		"/>
		<polygon class="st5" points="14.9,44.6 0,18.8 6.9,18.8 17.3,37.5 27.3,18.8 33.2,18.8 19.1,44.6 14.9,44.6 		"/>
		<path class="st5" d="M38.2,44.6V18.8h4l18.1,15.2c0.7,0.6,1.2,1,1.7,1.4c0.6,0.4,1,1,1.4,1.4c-0.1-1.4-0.3-2.5-0.3-3
			c0-0.6,0-1.1,0-1.4V18.8h5.4v25.7h-4.1l-19-15.9c-0.4-0.4-0.8-0.7-1.1-1.1c-0.4-0.3-0.7-0.6-1-1c0.1,0.8,0.1,1.5,0.1,2.4
			c0.1,0.7,0.1,1.2,0.1,1.8v13.8H38.2L38.2,44.6z"/>
	</g>
</g>
</svg>
