<svg width="54" height="18" viewBox="0 0 54 18" fill="none" xmlns="http://www.w3.org/2000/svg">
<path d="M3.88916 14V4.52979H0.351562V3.2627H8.8623V4.52979H5.31006V14H3.88916ZM10.1587 14V3.2627H11.4771V7.11523C12.0923 6.40234 12.8687 6.0459 13.8062 6.0459C14.3823 6.0459 14.8828 6.16064 15.3076 6.39014C15.7324 6.61475 16.0352 6.92725 16.2158 7.32764C16.4014 7.72803 16.4941 8.30908 16.4941 9.0708V14H15.1758V9.0708C15.1758 8.41162 15.0317 7.93311 14.7437 7.63525C14.4604 7.33252 14.0576 7.18115 13.5352 7.18115C13.1445 7.18115 12.7759 7.28369 12.4292 7.48877C12.0874 7.68896 11.8433 7.9624 11.6968 8.30908C11.5503 8.65576 11.4771 9.13428 11.4771 9.74463V14H10.1587ZM18.0176 10.1108C18.0176 8.67041 18.418 7.60352 19.2188 6.91016C19.8877 6.33398 20.7031 6.0459 21.665 6.0459C22.7344 6.0459 23.6084 6.39746 24.2871 7.10059C24.9658 7.79883 25.3052 8.76562 25.3052 10.001C25.3052 11.002 25.1538 11.7905 24.8511 12.3667C24.5532 12.938 24.1162 13.3823 23.54 13.6997C22.9688 14.0171 22.3438 14.1758 21.665 14.1758C20.5762 14.1758 19.6948 13.8267 19.021 13.1284C18.3521 12.4302 18.0176 11.4243 18.0176 10.1108ZM19.3726 10.1108C19.3726 11.1069 19.5898 11.854 20.0244 12.3521C20.459 12.8452 21.0059 13.0918 21.665 13.0918C22.3193 13.0918 22.8638 12.8428 23.2983 12.3447C23.7329 11.8467 23.9502 11.0874 23.9502 10.0669C23.9502 9.10498 23.7305 8.37744 23.291 7.88428C22.8564 7.38623 22.3145 7.13721 21.665 7.13721C21.0059 7.13721 20.459 7.38379 20.0244 7.87695C19.5898 8.37012 19.3726 9.11475 19.3726 10.1108ZM31.9336 13.0405C31.4453 13.4556 30.9741 13.7485 30.52 13.9194C30.0708 14.0903 29.5874 14.1758 29.0698 14.1758C28.2153 14.1758 27.5586 13.9683 27.0996 13.5532C26.6406 13.1333 26.4111 12.5986 26.4111 11.9492C26.4111 11.5684 26.4966 11.2217 26.6675 10.9092C26.8433 10.5918 27.0703 10.3379 27.3486 10.1475C27.6318 9.95703 27.9492 9.81299 28.3008 9.71533C28.5596 9.64697 28.9502 9.58105 29.4727 9.51758C30.5371 9.39062 31.3208 9.23926 31.8237 9.06348C31.8286 8.88281 31.8311 8.76807 31.8311 8.71924C31.8311 8.18213 31.7065 7.80371 31.4575 7.58398C31.1206 7.28613 30.6201 7.13721 29.9561 7.13721C29.3359 7.13721 28.877 7.24707 28.5791 7.4668C28.2861 7.68164 28.0688 8.06494 27.9272 8.6167L26.6382 8.44092C26.7554 7.88916 26.9482 7.44482 27.2168 7.10791C27.4854 6.76611 27.8735 6.50488 28.3813 6.32422C28.8892 6.13867 29.4775 6.0459 30.1465 6.0459C30.8105 6.0459 31.3501 6.12402 31.7651 6.28027C32.1802 6.43652 32.4854 6.63428 32.6807 6.87354C32.876 7.10791 33.0127 7.40576 33.0908 7.76709C33.1348 7.9917 33.1567 8.39697 33.1567 8.98291V10.7407C33.1567 11.9663 33.1836 12.7427 33.2373 13.0698C33.2959 13.3921 33.4082 13.7021 33.5742 14H32.1973C32.0605 13.7266 31.9727 13.4067 31.9336 13.0405ZM31.8237 10.0962C31.3452 10.2915 30.6274 10.4575 29.6704 10.5942C29.1284 10.6724 28.7451 10.7603 28.5205 10.8579C28.2959 10.9556 28.1226 11.0996 28.0005 11.29C27.8784 11.4756 27.8174 11.6831 27.8174 11.9126C27.8174 12.2642 27.9492 12.5571 28.2129 12.7915C28.4814 13.0259 28.8721 13.1431 29.3848 13.1431C29.8926 13.1431 30.3442 13.0332 30.7397 12.8135C31.1353 12.5889 31.4258 12.2837 31.6113 11.8979C31.7529 11.6001 31.8237 11.1606 31.8237 10.5796V10.0962ZM29.2603 5.25488L30.2344 3.2041H31.9629L30.3516 5.25488H29.2603ZM38.0859 12.8208L38.2764 13.9854C37.9053 14.0635 37.5732 14.1025 37.2803 14.1025C36.8018 14.1025 36.4307 14.0269 36.167 13.8755C35.9033 13.7241 35.7178 13.5264 35.6104 13.2822C35.5029 13.0332 35.4492 12.5132 35.4492 11.7222V7.24707H34.4824V6.22168H35.4492V4.29541L36.7603 3.50439V6.22168H38.0859V7.24707H36.7603V11.7954C36.7603 12.1714 36.7822 12.4131 36.8262 12.5205C36.875 12.6279 36.9507 12.7134 37.0532 12.7769C37.1606 12.8403 37.312 12.8721 37.5073 12.8721C37.6538 12.8721 37.8467 12.855 38.0859 12.8208Z" fill="#4F4F4F"/>
<path d="M51 12L54 9L51 6L51 8.25L46.5 8.25L46.5 9.75L51 9.75L51 12Z" fill="#BDBDBD"/>
<path d="M42.75 3L49.5 3C49.95 3 50.25 3.3 50.25 3.75L50.25 6L48.75 6L48.75 4.5L43.5 4.5L43.5 13.5L48.75 13.5L48.75 12L50.25 12L50.25 14.25C50.25 14.7 49.95 15 49.5 15L42.75 15C42.3 15 42 14.7 42 14.25L42 3.75C42 3.3 42.3 3 42.75 3Z" fill="#BDBDBD"/>
</svg>
