<svg xmlns="http://www.w3.org/2000/svg" width="10.57" height="10.535" viewBox="0 0 10.57 10.535">
  <path id="Tracé_158" data-name="Tracé 158" d="M11.408-8.83a3.136,3.136,0,0,0-2.361-.656H4.471a3.064,3.064,0,0,0-2.32.662A3.057,3.057,0,0,0,1.494-6.51v4.547a3.1,3.1,0,0,0,.65,2.35,3.12,3.12,0,0,0,2.361.662H9.047A3.1,3.1,0,0,0,11.408.387a3.075,3.075,0,0,0,.656-2.35V-6.475A3.082,3.082,0,0,0,11.408-8.83Zm-.07,2.2v4.822a2.344,2.344,0,0,1-.463,1.664,2.342,2.342,0,0,1-1.67.469H4.348a2.388,2.388,0,0,1-1.67-.469,2.343,2.343,0,0,1-.457-1.664V-6.6a2.4,2.4,0,0,1,.457-1.7,2.409,2.409,0,0,1,1.711-.469H9.205a2.37,2.37,0,0,1,1.67.469A2.362,2.362,0,0,1,11.338-6.633ZM6.773-1.447a.37.37,0,0,0,.381-.416V-3.85H9.205a.376.376,0,0,0,.422-.369.376.376,0,0,0-.422-.387H7.154V-6.662a.37.37,0,0,0-.381-.416.372.372,0,0,0-.375.416v2.057H4.354a.376.376,0,0,0-.422.387.376.376,0,0,0,.422.369H6.4v1.986A.375.375,0,0,0,6.773-1.447Z" transform="translate(-1.494 9.486)" fill="#1c1c1c"/>
</svg>
