<svg xmlns="http://www.w3.org/2000/svg" width="11.361" height="11.361" viewBox="0 0 11.361 11.361">
  <path id="Tracé_160" data-name="Tracé 160" d="M6.674,1.682A5.718,5.718,0,0,0,12.352-4,5.722,5.722,0,0,0,6.668-9.68,5.717,5.717,0,0,0,.99-4,5.723,5.723,0,0,0,6.674,1.682Zm0-1.014A4.648,4.648,0,0,1,2.01-4a4.646,4.646,0,0,1,4.658-4.67A4.665,4.665,0,0,1,11.344-4,4.649,4.649,0,0,1,6.674.668Zm.563-3.047L9.393-4.67a.439.439,0,0,0,.018-.609.422.422,0,0,0-.621-.012L6.674-3.047,4.559-5.291a.422.422,0,0,0-.621.012.433.433,0,0,0,.012.609L6.111-2.379A.71.71,0,0,0,7.236-2.379Z" transform="translate(-0.99 9.68)" fill="#969696"/>
</svg>
