<svg xmlns="http://www.w3.org/2000/svg" xmlns:xlink="http://www.w3.org/1999/xlink" width="60" height="60" viewBox="0 0 60 60"><defs><clipPath id="b"><rect width="60" height="60"/></clipPath></defs><g id="a" clip-path="url(#b)"><g transform="translate(0 8)"><g transform="translate(0)"><path d="M44.612,22.306A22.293,22.293,0,0,0,11.362,2.878H8.635V0H4.317V9.129A22.1,22.1,0,0,0,0,22.306,22.315,22.315,0,0,0,30.258,43.15a9.324,9.324,0,0,0,11.11-.809l-.94-1.089a7.915,7.915,0,1,1,2.745-5.994,7.83,7.83,0,0,1-1.745,4.958l1.122.9a9.385,9.385,0,0,0,2.062-5.861,9.29,9.29,0,0,0-1.463-5A22.217,22.217,0,0,0,44.612,22.306ZM11.513,7.2h1.439V17.269H11.513ZM8.635,4.317h1.439V17.269H8.635ZM5.756,1.439H7.2v15.83H5.756Zm15.83,41.715A20.887,20.887,0,0,1,1.457,23.025H21.586Zm0-21.568H1.468a20.62,20.62,0,0,1,2.849-9.834v6.956h15.83v-7.2H17.269V8.635H14.391V5.756H11.513v-1.3A20.777,20.777,0,0,1,21.586,1.464Zm-7.2-4.317v-7.2H15.83v7.2Zm2.878,0V12.952h1.439v4.317Zm25.886,4.317h-6.16l5.292-5.292A20.758,20.758,0,0,1,43.155,21.586ZM39.529,10.541l-8.037,8.037L32.51,19.6l7.807-7.807a20.84,20.84,0,0,1,1.447,2.994l-6.8,6.8H30.519l.93-.93-1.017-1.017-1.948,1.948H24.043L37.551,8.078A21.112,21.112,0,0,1,39.529,10.541Zm-16.5-9.084a20.758,20.758,0,0,1,5.292.868L23.025,7.617Zm0,14.671L31.77,7.383,30.753,6.366l-7.727,7.727V9.652l6.8-6.8a20.69,20.69,0,0,1,2.994,1.447L31.664,5.454l1.017,1.017L34.07,5.083a21.037,21.037,0,0,1,2.463,1.978L23.025,20.569ZM35.258,25.9a9.34,9.34,0,0,0-6.349,16.2,20.741,20.741,0,0,1-5.883,1.049V23.025H43.156A20.758,20.758,0,0,1,42.1,28.906,9.319,9.319,0,0,0,35.258,25.9Z" transform="translate(0)" fill="#1c1c1c"/></g><g transform="translate(8.848 26.114)"><g transform="translate(0 0)"><rect width="12.211" height="1.439" transform="translate(0 8.635) rotate(-45)" fill="#1c1c1c"/></g></g><g transform="translate(14.391 31.66)"><path d="M162.159,352a2.159,2.159,0,1,0,2.159,2.159A2.161,2.161,0,0,0,162.159,352Zm0,2.878a.72.72,0,1,1,.72-.72A.72.72,0,0,1,162.159,354.878Z" transform="translate(-160 -352)" fill="#1c1c1c"/></g><g transform="translate(8.635 25.904)"><path d="M98.159,288a2.159,2.159,0,1,0,2.159,2.159A2.161,2.161,0,0,0,98.159,288Zm0,2.878a.72.72,0,1,1,.72-.72A.72.72,0,0,1,98.159,290.878Z" transform="translate(-96 -288)" fill="#1c1c1c"/></g><g transform="translate(32.379 28.782)"><path d="M362.878,325.756a1.439,1.439,0,1,1,1.439-1.439h1.439a2.875,2.875,0,0,0-2.159-2.776V320h-1.439v1.541a2.872,2.872,0,0,0,.72,5.654,1.439,1.439,0,1,1-1.439,1.439H360a2.875,2.875,0,0,0,2.159,2.776v1.541H363.6v-1.541a2.872,2.872,0,0,0-.72-5.654Z" transform="translate(-360 -320)" fill="#1c1c1c"/></g><g transform="translate(40.347 34.302)"><g transform="translate(0 0)"><rect width="2" height="1" transform="translate(-0.458 0.202)" fill="#1c1c1c"/></g></g><g transform="translate(28.634 34.302)"><g transform="translate(0 0)"><rect width="1" height="1" transform="translate(0.255 0.202)" fill="#1c1c1c"/></g></g></g></g></svg>