<svg xmlns="http://www.w3.org/2000/svg" xmlns:xlink="http://www.w3.org/1999/xlink" width="44.57" height="60" viewBox="0 0 44.57 60"><defs><clipPath id="b"><rect width="44.57" height="60"/></clipPath></defs><g id="a" clip-path="url(#b)"><g transform="translate(0 8)"><ellipse cx="2" cy="1" rx="2" ry="1" transform="translate(18.321 10.504)" fill="#1c1c1c"/><ellipse cx="1.5" cy="1" rx="1.5" ry="1" transform="translate(22.321 10.504)" fill="#1c1c1c"/><path d="M32.875,11.92l1.486-4.457a.743.743,0,0,0-.7-.977H27.07l-.1-.835A.743.743,0,0,0,26.228,5H24.743a.743.743,0,0,0,0,1.486h.83l.1.825v.022l.556,4.445a.743.743,0,0,0,.74.651h5.2a.743.743,0,0,0,.7-.508Zm-5.248-.977-.371-2.971h5.37l-.991,2.971Z" transform="translate(-7.659 -2.772)" fill="#1c1c1c"/><path d="M38.714,42.428H37.228a.743.743,0,0,1-.743-.743.743.743,0,1,0-1.486,0,2.228,2.228,0,0,0,2.219,2.228l-.01.734a.743.743,0,0,0,.733.752h.01a.743.743,0,0,0,.743-.733l.01-.752h.008a2.228,2.228,0,1,0,0-4.457H37.228a.743.743,0,1,1,0-1.486h1.486a.743.743,0,0,1,.743.743.743.743,0,0,0,1.486,0,2.228,2.228,0,0,0-2.228-2.228v-.743a.743.743,0,1,0-1.486,0v.743a2.228,2.228,0,0,0,0,4.457h1.486a.743.743,0,0,1,0,1.486Z" transform="translate(-10.489 -10.489)" fill="#1c1c1c"/><path d="M42.852,2H16.164a.748.748,0,0,0-.527.215l-7.48,7.45a.767.767,0,0,0-.215.527V15.37H5.714A3.714,3.714,0,0,0,2,19.083V42.852a3.714,3.714,0,0,0,3.714,3.714H20.569a3.726,3.726,0,0,0,3.64-2.971H39.138a.743.743,0,0,0,0-1.486H24.283V36.991a7.428,7.428,0,1,0,0-10.562V19.083a3.714,3.714,0,0,0-3.714-3.714H9.428V10.913H15.37a1.49,1.49,0,0,0,1.486-1.486V3.486H42.109V7.2a.743.743,0,0,0,1.486,0V2.743A.743.743,0,0,0,42.852,2ZM24.283,28.858a5.942,5.942,0,1,1,0,5.7Zm-3.714-12A2.235,2.235,0,0,1,22.8,19.083V42.852a2.235,2.235,0,0,1-2.228,2.228H5.714a2.235,2.235,0,0,1-2.228-2.228V19.083a2.235,2.235,0,0,1,2.228-2.228Zm-5.2-7.428H10.5L15.37,4.585Z" transform="translate(-2 -2)" fill="#1c1c1c"/><path d="M47.428,7H40.743a.743.743,0,0,0,0,1.486h6.685a.743.743,0,1,0,0-1.486Z" transform="translate(-11.775 -3.286)" fill="#1c1c1c"/><path d="M48.17,11.743A.743.743,0,0,0,47.428,11H40.743a.743.743,0,0,0,0,1.486h6.685A.743.743,0,0,0,48.17,11.743Z" transform="translate(-11.775 -4.315)" fill="#1c1c1c"/><path d="M46.17,15H38.743a.743.743,0,1,0,0,1.486H46.17a.743.743,0,1,0,0-1.486Z" transform="translate(-11.261 -5.344)" fill="#1c1c1c"/><path d="M46.913,19.743A.743.743,0,0,0,46.17,19H38.743a.743.743,0,1,0,0,1.486H46.17A.743.743,0,0,0,46.913,19.743Z" transform="translate(-11.261 -6.373)" fill="#1c1c1c"/><path d="M42.913,23h-8.17a.743.743,0,1,0,0,1.486h8.17a.743.743,0,0,0,0-1.486Z" transform="translate(-10.232 -7.402)" fill="#1c1c1c"/><path d="M42.913,27h-8.17a.743.743,0,0,0,0,1.486h8.17a.743.743,0,0,0,0-1.486Z" transform="translate(-10.232 -8.431)" fill="#1c1c1c"/><path d="M54.942,12a3.714,3.714,0,0,0-3.714,3.714v3.714A2.235,2.235,0,0,0,49,21.656V27.6a.743.743,0,1,0,1.486,0V21.656a.743.743,0,0,1,.743-.743V39.482a.743.743,0,0,0,.743.743v2.228a.743.743,0,0,0,.743.743h.163l1.344,5.378a.743.743,0,0,0,1.441,0L57.007,43.2h.163a.743.743,0,0,0,.743-.743V40.225a.743.743,0,0,0,.743-.743V15.714A3.714,3.714,0,0,0,54.942,12Zm0,33.335L54.407,43.2h1.07Zm1.486-3.625H53.457V40.225h2.971Zm.743-2.971H52.714V20.913H57.17Zm0-19.312H52.714V17.942H57.17Zm0-2.971H52.714v-.743a2.228,2.228,0,1,1,4.457,0Z" transform="translate(-14.09 -4.572)" fill="#1c1c1c"/><path d="M21.6,24H6.743A.743.743,0,0,0,6,24.743v5.942a.743.743,0,0,0,.743.743H21.6a.743.743,0,0,0,.743-.743V24.743A.743.743,0,0,0,21.6,24Zm-.743,5.942H7.486V25.486h13.37Z" transform="translate(-3.029 -7.659)" fill="#1c1c1c"/><path d="M9.714,36H6.743A.743.743,0,0,0,6,36.743v2.971a.743.743,0,0,0,.743.743H9.714a.743.743,0,0,0,.743-.743V36.743A.743.743,0,0,0,9.714,36Zm-.743,2.971H7.486V37.486H8.971Z" transform="translate(-3.029 -10.746)" fill="#1c1c1c"/><path d="M9.714,44H6.743A.743.743,0,0,0,6,44.743v2.971a.743.743,0,0,0,.743.743H9.714a.743.743,0,0,0,.743-.743V44.743A.743.743,0,0,0,9.714,44Zm-.743,2.971H7.486V45.486H8.971Z" transform="translate(-3.029 -12.804)" fill="#1c1c1c"/><path d="M9.714,52H6.743A.743.743,0,0,0,6,52.743v2.971a.743.743,0,0,0,.743.743H9.714a.743.743,0,0,0,.743-.743V52.743A.743.743,0,0,0,9.714,52Zm-.743,2.971H7.486V53.486H8.971Z" transform="translate(-3.029 -14.862)" fill="#1c1c1c"/><path d="M17.714,36H14.743a.743.743,0,0,0-.743.743v2.971a.743.743,0,0,0,.743.743h2.971a.743.743,0,0,0,.743-.743V36.743A.743.743,0,0,0,17.714,36Zm-.743,2.971H15.486V37.486h1.486Z" transform="translate(-5.087 -10.746)" fill="#1c1c1c"/><path d="M17.714,44H14.743a.743.743,0,0,0-.743.743v2.971a.743.743,0,0,0,.743.743h2.971a.743.743,0,0,0,.743-.743V44.743A.743.743,0,0,0,17.714,44Zm-.743,2.971H15.486V45.486h1.486Z" transform="translate(-5.087 -12.804)" fill="#1c1c1c"/><path d="M17.714,52H14.743a.743.743,0,0,0-.743.743v2.971a.743.743,0,0,0,.743.743h2.971a.743.743,0,0,0,.743-.743V52.743A.743.743,0,0,0,17.714,52Zm-.743,2.971H15.486V53.486h1.486Z" transform="translate(-5.087 -14.862)" fill="#1c1c1c"/><path d="M25.714,36H22.743a.743.743,0,0,0-.743.743v2.971a.743.743,0,0,0,.743.743h2.971a.743.743,0,0,0,.743-.743V36.743A.743.743,0,0,0,25.714,36Zm-.743,2.971H23.486V37.486h1.486Z" transform="translate(-7.145 -10.746)" fill="#1c1c1c"/><path d="M25.714,44H22.743a.743.743,0,0,0-.743.743v2.971a.743.743,0,0,0,.743.743h2.971a.743.743,0,0,0,.743-.743V44.743A.743.743,0,0,0,25.714,44Zm-.743,2.971H23.486V45.486h1.486Z" transform="translate(-7.145 -12.804)" fill="#1c1c1c"/><path d="M25.714,52H22.743a.743.743,0,0,0-.743.743v2.971a.743.743,0,0,0,.743.743h2.971a.743.743,0,0,0,.743-.743V52.743A.743.743,0,0,0,25.714,52Zm-.743,2.971H23.486V53.486h1.486Z" transform="translate(-7.145 -14.862)" fill="#1c1c1c"/></g></g></svg>