<svg xmlns="http://www.w3.org/2000/svg" xmlns:xlink="http://www.w3.org/1999/xlink" width="46.59" height="60" viewBox="0 0 46.59 60"><defs><clipPath id="b"><rect width="46.59" height="60"/></clipPath></defs><g id="a" clip-path="url(#b)"><g transform="translate(0 7)"><path d="M37.083,39.623H32.627V35.578l6.6-4.125-6.6-4.125V22.54h4.457V16.6H32.627V11.4h5.942V1H25.2V11.4h5.942v5.2H26.685v2.228H20v1.486h6.685V22.54h4.457v4.788l-6.6,4.125,6.6,4.125v4.045H26.685a2.231,2.231,0,0,0-2.228,2.228v2.971a2.231,2.231,0,0,0,2.228,2.228h10.4a2.231,2.231,0,0,0,2.228-2.228V41.852A2.231,2.231,0,0,0,37.083,39.623ZM26.685,2.486h10.4V9.913h-10.4Zm1.486,15.6H35.6v2.971H28.17Zm3.714,10.532,4.54,2.838-4.54,2.838-4.54-2.838Zm5.942,16.208a.744.744,0,0,1-.743.743h-10.4a.744.744,0,0,1-.743-.743V41.852a.744.744,0,0,1,.743-.743h10.4a.744.744,0,0,1,.743.743Z" transform="translate(-5.352 -1)" fill="#1c1c1c"/><path d="M15.131,49.38l1.7,1.7H10.32a2.226,2.226,0,0,0-1.349-1.349V34H7.486V49.735a2.223,2.223,0,1,0,2.834,2.834h6.514l-1.7,1.7,1.05,1.05,3.5-3.5-3.5-3.5Zm-6.9,3.189a.743.743,0,1,1,.743-.743A.744.744,0,0,1,8.228,52.569Z" transform="translate(-1.751 -9.489)" fill="#1c1c1c"/><path d="M57.292,30.39V9.32a2.223,2.223,0,1,0-2.834-2.834H46.894V7.971h7.564A2.226,2.226,0,0,0,55.807,9.32V30.391a2.226,2.226,0,0,0-1.349,1.349H49.429l1.7-1.7-1.05-1.05-3.5,3.5,3.5,3.5,1.05-1.05-1.7-1.7h5.028a2.223,2.223,0,1,0,2.834-2.834Zm-.743-23.9a.743.743,0,1,1-.743.743A.744.744,0,0,1,56.549,6.486Zm0,26.739a.743.743,0,1,1,.743-.743A.744.744,0,0,1,56.549,33.225Z" transform="translate(-12.191 -2.029)" fill="#1c1c1c"/><path d="M13.234,24.4,6.757,19.771.279,24.4l6.478,4.627ZM6.757,21.6l3.921,2.8L6.757,27.2,2.836,24.4Z" transform="translate(-0.279 -5.829)" fill="#1c1c1c"/><path d="M31,5h7.428V6.486H31Z" transform="translate(-8.182 -2.029)" fill="#1c1c1c"/><path d="M31,9h4.457v1.486H31Z" transform="translate(-8.182 -3.058)" fill="#1c1c1c"/><path d="M39,9h1.486v1.486H39Z" transform="translate(-10.24 -3.058)" fill="#1c1c1c"/><path d="M56,57h1.486v1.486H56Z" transform="translate(-14.613 -15.406)" fill="#1c1c1c"/><path d="M52,57h1.486v1.486H52Z" transform="translate(-13.584 -15.406)" fill="#1c1c1c"/><path d="M48,57h1.486v1.486H48Z" transform="translate(-12.555 -15.406)" fill="#1c1c1c"/><path d="M19,9h1.486v1.486H19Z" transform="translate(-5.095 -3.058)" fill="#1c1c1c"/><path d="M23,9h1.486v1.486H23Z" transform="translate(-6.124 -3.058)" fill="#1c1c1c"/><path d="M15,9h1.486v1.486H15Z" transform="translate(-4.066 -3.058)" fill="#1c1c1c"/></g></g></svg>