<svg xmlns="http://www.w3.org/2000/svg" xmlns:xlink="http://www.w3.org/1999/xlink" width="37.04" height="60" viewBox="0 0 37.04 60"><defs><clipPath id="b"><rect width="37.04" height="60"/></clipPath></defs><g id="a" clip-path="url(#b)"><g transform="translate(-64 -9)"><path d="M64.344,60.628l2.315,1.543a.772.772,0,0,0,.856,0L69.4,60.913l1.887,1.258a.772.772,0,0,0,.856,0l1.887-1.258,1.887,1.258a.772.772,0,0,0,.856,0l1.887-1.258,1.887,1.258a.772.772,0,0,0,.856,0l1.887-1.258,1.887,1.258a.772.772,0,0,0,.856,0l2.315-1.543a.772.772,0,0,0,.344-.642V46.867h8.488a3.863,3.863,0,0,0,3.858-3.858v-9.26a.772.772,0,0,0-.344-.642l-2.315-1.543a.772.772,0,0,0-.856,0l-1.789,1.192-.87-.87V19.858A3.863,3.863,0,0,0,91.009,16H67.858A3.863,3.863,0,0,0,64,19.858V59.986a.772.772,0,0,0,.344.642ZM96.067,34.391l1.887-1.258L99.5,34.162v8.847a2.315,2.315,0,1,1-4.63,0V34.068l.226.226A.772.772,0,0,0,96.067,34.391ZM93.324,19.858v23.15a3.838,3.838,0,0,0,.774,2.315h-5.4V19.858a2.315,2.315,0,1,1,4.63,0Zm-27.78,35.5v-35.5a2.318,2.318,0,0,1,2.315-2.315H87.924a3.838,3.838,0,0,0-.774,2.315V59.573L85.607,60.6,83.72,59.344a.772.772,0,0,0-.856,0L80.977,60.6,79.09,59.344a.772.772,0,0,0-.856,0L76.347,60.6,74.46,59.344a.772.772,0,0,0-.856,0L71.717,60.6,69.83,59.344a.772.772,0,0,0-.856,0L67.087,60.6l-1.543-1.029Z" fill="#1c1c1c"/><path d="M120.205,272H104.772a.772.772,0,0,0-.772.772v6.173a.772.772,0,0,0,.772.772h15.434a.772.772,0,0,0,.772-.772v-6.173A.772.772,0,0,0,120.205,272Zm-8.488,1.543h1.543v4.63h-1.543Zm-1.543,4.63H108.63v-4.63h1.543Zm4.63-4.63h1.543v4.63H114.8Zm-9.26,0h1.543v4.63h-1.543Zm13.89,4.63H117.89v-4.63h1.543Z" transform="translate(-36.142 -231.306)" fill="#1c1c1c"/><path d="M80.772,417.543h1.543a.772.772,0,0,0,0-1.543H80.772a.772.772,0,0,0,0,1.543Z" transform="translate(-14.457 -361.416)" fill="#1c1c1c"/><path d="M130.315,416h-1.543a.772.772,0,0,0,0,1.543h1.543a.772.772,0,1,0,0-1.543Z" transform="translate(-57.827 -361.416)" fill="#1c1c1c"/><path d="M178.315,416h-1.543a.772.772,0,0,0,0,1.543h1.543a.772.772,0,0,0,0-1.543Z" transform="translate(-101.196 -361.416)" fill="#1c1c1c"/><path d="M226.315,416h-1.543a.772.772,0,0,0,0,1.543h1.543a.772.772,0,0,0,0-1.543Z" transform="translate(-144.566 -361.416)" fill="#1c1c1c"/><path d="M274.315,416h-1.543a.772.772,0,0,0,0,1.543h1.543a.772.772,0,1,0,0-1.543Z" transform="translate(-187.936 -361.416)" fill="#1c1c1c"/><path d="M120.205,369.543a.772.772,0,1,0,0-1.543H104.772a.772.772,0,1,0,0,1.543Z" transform="translate(-36.142 -318.046)" fill="#1c1c1c"/><path d="M96.772,49.543h9.26a.772.772,0,1,0,0-1.543h-9.26a.772.772,0,0,0,0,1.543Z" transform="translate(-28.913 -28.913)" fill="#1c1c1c"/><path d="M256.772,49.543h1.543a.772.772,0,0,0,0-1.543h-1.543a.772.772,0,1,0,0,1.543Z" transform="translate(-173.48 -28.913)" fill="#1c1c1c"/><path d="M96.772,81.543h9.26a.772.772,0,1,0,0-1.543h-9.26a.772.772,0,0,0,0,1.543Z" transform="translate(-28.913 -57.827)" fill="#1c1c1c"/><path d="M256.772,81.543h1.543a.772.772,0,0,0,0-1.543h-1.543a.772.772,0,1,0,0,1.543Z" transform="translate(-173.48 -57.827)" fill="#1c1c1c"/><path d="M96.772,113.543h9.26a.772.772,0,1,0,0-1.543h-9.26a.772.772,0,0,0,0,1.543Z" transform="translate(-28.913 -86.74)" fill="#1c1c1c"/><path d="M256.772,113.543h1.543a.772.772,0,0,0,0-1.543h-1.543a.772.772,0,1,0,0,1.543Z" transform="translate(-173.48 -86.74)" fill="#1c1c1c"/><path d="M96.772,145.543h9.26a.772.772,0,1,0,0-1.543h-9.26a.772.772,0,0,0,0,1.543Z" transform="translate(-28.913 -115.653)" fill="#1c1c1c"/><path d="M256.772,145.543h1.543a.772.772,0,0,0,0-1.543h-1.543a.772.772,0,1,0,0,1.543Z" transform="translate(-173.48 -115.653)" fill="#1c1c1c"/><path d="M96.772,177.543h9.26a.772.772,0,1,0,0-1.543h-9.26a.772.772,0,0,0,0,1.543Z" transform="translate(-28.913 -144.566)" fill="#1c1c1c"/><path d="M256.772,177.543h1.543a.772.772,0,0,0,0-1.543h-1.543a.772.772,0,1,0,0,1.543Z" transform="translate(-173.48 -144.566)" fill="#1c1c1c"/><path d="M106.032,209.543a.772.772,0,1,0,0-1.543h-9.26a.772.772,0,0,0,0,1.543Z" transform="translate(-28.913 -173.48)" fill="#1c1c1c"/><path d="M128,240.772a.772.772,0,0,0,.772.772h9.26a.772.772,0,0,0,0-1.543h-9.26A.772.772,0,0,0,128,240.772Z" transform="translate(-57.827 -202.393)" fill="#1c1c1c"/><path d="M256.772,209.543h1.543a.772.772,0,0,0,0-1.543h-1.543a.772.772,0,1,0,0,1.543Z" transform="translate(-173.48 -173.48)" fill="#1c1c1c"/></g></g></svg>