<svg xmlns="http://www.w3.org/2000/svg" xmlns:xlink="http://www.w3.org/1999/xlink" width="44.15" height="60" viewBox="0 0 44.15 60"><defs><clipPath id="b"><rect width="44.15" height="60"/></clipPath></defs><g id="a" clip-path="url(#b)"><g transform="translate(0 8)"><path d="M14.833,46.667A7.833,7.833,0,1,0,7,38.833,7.843,7.843,0,0,0,14.833,46.667ZM8.466,39.545h2.878a3.572,3.572,0,0,0,2.777,2.777V45.2A6.417,6.417,0,0,1,8.466,39.545ZM14.833,36.7A2.136,2.136,0,1,1,12.7,38.833,2.139,2.139,0,0,1,14.833,36.7Zm.712,8.5V42.322a3.572,3.572,0,0,0,2.777-2.777H21.2A6.417,6.417,0,0,1,15.545,45.2ZM21.2,38.121H18.322a3.572,3.572,0,0,0-2.777-2.777V32.466A6.417,6.417,0,0,1,21.2,38.121Zm-7.079-5.655v2.878a3.572,3.572,0,0,0-2.777,2.777H8.466A6.417,6.417,0,0,1,14.121,32.466Z" transform="translate(-2.727 -9.636)" fill="#1c1c1c"/><path d="M35,17.545A8.545,8.545,0,1,0,43.545,9,8.555,8.555,0,0,0,35,17.545Zm15.667,0a7.121,7.121,0,1,1-7.121-7.121A7.129,7.129,0,0,1,50.667,17.545Z" transform="translate(-10.788 -3.303)" fill="#1c1c1c"/><path d="M36.606,26.261A11.378,11.378,0,0,0,34.47,3.885V1H4.561V21.622L2.668,23.514,3.6,25.33a10.756,10.756,0,0,0-.654,1.587L1,27.541v5.312l1.947.624A10.662,10.662,0,0,0,3.6,35.064L2.667,36.88l1.894,1.893v6.379H34.47V39.383a3.567,3.567,0,0,0,2.848-3.489V30.2a2.132,2.132,0,0,0-1-1.8,2.113,2.113,0,0,0,.286-1.048Zm-2.136,1.8H33.045a.712.712,0,0,1-.712-.712v-.811a10.3,10.3,0,0,0,2.848,0v.811A.712.712,0,0,1,34.47,28.061Zm9.258-12.818a9.97,9.97,0,1,1-9.97-9.97A9.981,9.981,0,0,1,43.727,15.242ZM5.026,34.71a9.24,9.24,0,0,1-.82-1.992l-.1-.368-1.678-.536V28.58L4.1,28.044l.1-.368a9.179,9.179,0,0,1,.821-1.992l.187-.334-.8-1.562L6.7,21.5l1.562.8.334-.187a9.179,9.179,0,0,1,1.992-.821l.368-.1.536-1.678h3.234l.537,1.678.368.1a9.179,9.179,0,0,1,1.992.821l.334.187,1.562-.8L21.8,23.787,21,25.35l.187.334a9.179,9.179,0,0,1,.821,1.992l.1.368,1.678.536v3.234l-1.678.537-.1.368a9.24,9.24,0,0,1-.82,1.992L21,35.044l.8,1.563-2.287,2.287-1.563-.8-.333.187a9.24,9.24,0,0,1-1.992.82l-.368.1-.536,1.678H11.49L10.953,39.2l-.368-.1a9.24,9.24,0,0,1-1.992-.82l-.333-.187-1.563.8L4.409,36.607l.8-1.563Zm.959,9.017V40.2l.439.439L8.239,39.7a10.662,10.662,0,0,0,1.587.654l.625,1.948h5.312l.624-1.947a10.662,10.662,0,0,0,1.587-.654l1.815.934,3.756-3.755-.934-1.815a10.693,10.693,0,0,0,.654-1.587l1.948-.625V27.541l-1.947-.624a10.725,10.725,0,0,0-.654-1.587l.934-1.815-3.756-3.756-1.815.934a10.756,10.756,0,0,0-1.587-.654l-.625-1.948H10.45l-.624,1.947a10.724,10.724,0,0,0-1.587.654l-1.815-.934-.439.439V2.424H33.045V3.885a11.378,11.378,0,0,0-2.136,22.376v1.087a2.113,2.113,0,0,0,.286,1.048,2.132,2.132,0,0,0-1,1.8v5.7a3.567,3.567,0,0,0,2.848,3.489v4.345Zm29.909-7.833a2.136,2.136,0,0,1-4.273,0V30.2a.712.712,0,0,1,.712-.712h2.848a.712.712,0,0,1,.712.712Z" transform="translate(-1 -1)" fill="#1c1c1c"/><path d="M41.3,19.566l-1.007,1.007,2.64,2.64L49.845,16.3l-1.007-1.007L42.933,21.2Z" transform="translate(-12.312 -5.115)" fill="#1c1c1c"/><path d="M10,12.121H24.242V5H10Zm1.424-5.7H22.818V10.7H11.424Z" transform="translate(-3.591 -2.152)" fill="#1c1c1c"/><path d="M10,17h1.424v1.424H10Z" transform="translate(-3.591 -5.606)" fill="#1c1c1c"/><path d="M14,17H24.682v1.424H14Z" transform="translate(-4.742 -5.606)" fill="#1c1c1c"/><path d="M10,21H23.53v1.424H10Z" transform="translate(-3.591 -6.758)" fill="#1c1c1c"/><path d="M33,57h5.7v1.424H33Z" transform="translate(-10.212 -17.121)" fill="#1c1c1c"/><path d="M33,53h5.7v1.424H33Z" transform="translate(-10.212 -15.97)" fill="#1c1c1c"/></g></g></svg>