<svg xmlns="http://www.w3.org/2000/svg" xmlns:xlink="http://www.w3.org/1999/xlink" width="44.54" height="60" viewBox="0 0 44.54 60"><defs><clipPath id="b"><rect width="44.54" height="60"/></clipPath></defs><g id="a" clip-path="url(#b)"><g transform="translate(0 9)"><path d="M7.942,41.366V39.138H22.054V37.652H4.228a.743.743,0,0,1-.743-.743V9.428H37.652V22.054h1.486V13.141h2.971v7.428h1.486V8.685a2.228,2.228,0,0,0-2.228-2.228H39.138V4.228A2.228,2.228,0,0,0,36.91,2H4.228A2.228,2.228,0,0,0,2,4.228V36.91a2.228,2.228,0,0,0,2.228,2.228H6.457v2.228a2.228,2.228,0,0,0,2.228,2.228H27.254V42.109H8.685A.743.743,0,0,1,7.942,41.366ZM41.366,7.942a.743.743,0,0,1,.743.743v2.971H39.138V7.942ZM4.228,3.486H36.91a.743.743,0,0,1,.743.743V7.942H3.486V4.228A.743.743,0,0,1,4.228,3.486Z" transform="translate(-2 -2)" fill="#1c1c1c"/><path d="M54.2,53.971a.743.743,0,0,1-.743.743H49V56.2h4.457a2.228,2.228,0,0,0,2.228-2.228V51H54.2Z" transform="translate(-14.09 -14.605)" fill="#1c1c1c"/><path d="M8,6H9.486V7.486H8Z" transform="translate(-3.543 -3.029)" fill="#1c1c1c"/><path d="M12,6h1.486V7.486H12Z" transform="translate(-4.572 -3.029)" fill="#1c1c1c"/><path d="M16,6h1.486V7.486H16Z" transform="translate(-5.601 -3.029)" fill="#1c1c1c"/><path d="M17.656,24.913a.743.743,0,0,0,.743-.743V16.743A.743.743,0,0,0,17.656,16H8.743A.743.743,0,0,0,8,16.743V24.17a.743.743,0,0,0,.743.743Zm-8.17-7.428h7.428v5.942H9.486Z" transform="translate(-3.543 -5.601)" fill="#1c1c1c"/><path d="M26,16h1.486v1.486H26Z" transform="translate(-8.174 -5.601)" fill="#1c1c1c"/><path d="M30,16h1.486v1.486H30Z" transform="translate(-9.203 -5.601)" fill="#1c1c1c"/><path d="M34,16h5.942v1.486H34Z" transform="translate(-10.232 -5.601)" fill="#1c1c1c"/><path d="M26,20H37.884v1.486H26Z" transform="translate(-8.174 -6.63)" fill="#1c1c1c"/><path d="M26,24H37.884v1.486H26Z" transform="translate(-8.174 -7.659)" fill="#1c1c1c"/><path d="M26,28H37.884v1.486H26Z" transform="translate(-8.174 -8.688)" fill="#1c1c1c"/><path d="M8,32H21.37v1.486H8Z" transform="translate(-3.543 -9.717)" fill="#1c1c1c"/><path d="M8,36H21.37v1.486H8Z" transform="translate(-3.543 -10.746)" fill="#1c1c1c"/><path d="M8,40H21.37v1.486H8Z" transform="translate(-3.543 -11.775)" fill="#1c1c1c"/><path d="M8,44H21.37v1.486H8Z" transform="translate(-3.543 -12.804)" fill="#1c1c1c"/><path d="M40.238,45.322l5.619-.81a2.225,2.225,0,0,0,3.533-2.654l-1.857-3.216A2.23,2.23,0,1,0,45.3,34.78l-1.857-3.216A2.228,2.228,0,0,0,39.384,33.3l-4.595,5.838-3.736,2.154a2.232,2.232,0,0,0-.817,3.045l1.486,2.573a2.228,2.228,0,0,0,3.045.817l2.6,4.5a2.228,2.228,0,0,0,3.045.817L41.7,52.3a2.228,2.228,0,0,0,.817-3.045Zm6.822-8.98a.743.743,0,0,1-.271,1.015l-.743-1.286a.743.743,0,0,1,1.014.272Zm-5.915-4.3a.743.743,0,0,1,1.015.271L48.1,42.6a.743.743,0,1,1-1.286.743L40.874,33.053a.743.743,0,0,1,.271-1.014Zm-1.009,2.707,4.845,8.393-6.335.912-2.468-4.274ZM35.01,40.726l2.228,3.862-1.286.743-2.228-3.862ZM33,46.171,31.519,43.6a.743.743,0,0,1,.272-1.015l.643-.371,2.228,3.862-.643.371a.743.743,0,0,1-1.011-.275Zm7.947,4.847-1.286.743a.743.743,0,0,1-1.015-.272l-2.6-4.5L38.5,45.575l.149-.022,2.571,4.453a.743.743,0,0,1-.269,1.012Z" transform="translate(-9.187 -9.324)" fill="#1c1c1c"/><path d="M0,0H2.971V1.486H0Z" transform="matrix(0.866, -0.5, 0.5, 0.866, 40.074, 24.89)" fill="#1c1c1c"/><path d="M0,0H3.152V1.486H0Z" transform="translate(37.609 23.14) rotate(-74.991)" fill="#1c1c1c"/><path d="M0,0H1.486V3.152H0Z" transform="translate(41.107 29.197) rotate(-74.991)" fill="#1c1c1c"/></g></g></svg>