<svg xmlns="http://www.w3.org/2000/svg" xmlns:xlink="http://www.w3.org/1999/xlink" width="39.93" height="60" viewBox="0 0 39.93 60"><defs><clipPath id="b"><rect width="39.93" height="60"/></clipPath></defs><g id="a" clip-path="url(#b)"><g transform="translate(0 6)"><g transform="translate(0 0)"><path d="M130.632,135.47a.675.675,0,0,0-.943.143l-1.335,1.814-.457-.627a.675.675,0,1,0-1.091.794l.788,1.082a.941.941,0,0,0,.756.386h0a.941.941,0,0,0,.755-.382l1.669-2.267A.675.675,0,0,0,130.632,135.47Z" transform="translate(-118.342 -123.166)" fill="#1c1c1c"/><path d="M130.631,258.5a.675.675,0,0,0-.943.143l-1.335,1.814-.457-.627a.675.675,0,1,0-1.091.794l.788,1.082a.941.941,0,0,0,.756.386h0a.941.941,0,0,0,.755-.382l1.669-2.267A.675.675,0,0,0,130.631,258.5Z" transform="translate(-118.342 -235.127)" fill="#1c1c1c"/><path d="M130.631,376.281a.675.675,0,0,0-.943.143l-1.335,1.814-.457-.627a.675.675,0,1,0-1.091.794l.788,1.082a.941.941,0,0,0,.756.386h0a.941.941,0,0,0,.755-.382l1.669-2.267A.675.675,0,0,0,130.631,376.281Z" transform="translate(-118.342 -342.318)" fill="#1c1c1c"/><path d="M221.2,134.217h8.339a.675.675,0,1,0,0-1.35H221.2a.675.675,0,1,0,0,1.35Z" transform="translate(-203.75 -120.917)" fill="#1c1c1c"/><path d="M221.2,165.558h4.17a.675.675,0,1,0,0-1.35H221.2a.675.675,0,0,0,0,1.35Z" transform="translate(-203.75 -149.439)" fill="#1c1c1c"/><path d="M221.2,254.621h5.6a.675.675,0,0,0,0-1.35h-5.6a.675.675,0,1,0,0,1.35Z" transform="translate(-203.75 -230.492)" fill="#1c1c1c"/><path d="M225.369,285.964a.675.675,0,1,0,0-1.349H221.2a.675.675,0,1,0,0,1.349Z" transform="translate(-203.75 -259.015)" fill="#1c1c1c"/><path d="M109.113,108.047h-5.2a1.72,1.72,0,0,0-1.718,1.718v5.2a1.72,1.72,0,0,0,1.718,1.718h5.2a1.72,1.72,0,0,0,1.718-1.718v-5.2A1.719,1.719,0,0,0,109.113,108.047Zm.368,6.916a.368.368,0,0,1-.368.368h-5.2a.368.368,0,0,1-.368-.368v-5.2a.369.369,0,0,1,.368-.368h5.2a.368.368,0,0,1,.368.368Z" transform="translate(-96.065 -98.329)" fill="#1c1c1c"/><path d="M109.113,228.453h-5.2a1.72,1.72,0,0,0-1.718,1.718v5.2a1.72,1.72,0,0,0,1.718,1.718h5.2a1.72,1.72,0,0,0,1.718-1.718v-5.2A1.719,1.719,0,0,0,109.113,228.453Zm.368,6.916a.368.368,0,0,1-.368.368h-5.2a.368.368,0,0,1-.368-.368v-5.2a.369.369,0,0,1,.368-.368h5.2a.368.368,0,0,1,.368.368Z" transform="translate(-96.065 -207.905)" fill="#1c1c1c"/><path d="M109.113,348.857h-5.2a1.72,1.72,0,0,0-1.718,1.717v5.2a1.72,1.72,0,0,0,1.718,1.718h5.2a1.72,1.72,0,0,0,1.718-1.718v-5.2A1.719,1.719,0,0,0,109.113,348.857Zm.368,6.916a.368.368,0,0,1-.368.368h-5.2a.368.368,0,0,1-.368-.368v-5.2a.369.369,0,0,1,.368-.368h5.2a.368.368,0,0,1,.368.368Z" transform="translate(-96.065 -317.48)" fill="#1c1c1c"/><path d="M72.806,11.541l-1.071-.678a2.463,2.463,0,0,0-3.4.764l-.982,1.552L65.99,15.333,64.448,17.77V7.642a1.266,1.266,0,0,0-1.265-1.265H58.348V5.027h6.473A.978.978,0,0,1,65.8,6v5.843a.675.675,0,0,0,1.35,0V6a2.329,2.329,0,0,0-2.326-2.326H58.209a1.841,1.841,0,0,0-1.7-1.138H54.766V1.86A1.863,1.863,0,0,0,52.906,0H48.261A1.863,1.863,0,0,0,46.4,1.86v.68H44.658a1.841,1.841,0,0,0-1.7,1.138H36.346A2.329,2.329,0,0,0,34.02,6V43.725a2.329,2.329,0,0,0,2.326,2.326H64.821a2.329,2.329,0,0,0,2.326-2.326V28.6a.675.675,0,0,0-1.35,0V43.725a.978.978,0,0,1-.977.977H36.346a.978.978,0,0,1-.977-.977V6a.978.978,0,0,1,.977-.977h6.473v1.35H37.984a1.266,1.266,0,0,0-1.265,1.265V42.087a1.266,1.266,0,0,0,1.265,1.265h25.2a1.266,1.266,0,0,0,1.265-1.265V29.353l6.775-10.707h0l1.363-2.154.983-1.553a2.466,2.466,0,0,0-.764-3.4Zm-2.633.316a1.105,1.105,0,0,1,.84.146l1.071.678a1.115,1.115,0,0,1,.345,1.537l-.622.982-2.953-1.87.621-.982A1.106,1.106,0,0,1,70.173,11.857ZM57.394,37.977a4.542,4.542,0,0,1-.427.57,4.744,4.744,0,0,0-.717-.768L68.822,17.925l.9.57ZM52.787,42l-.013,0h0l.953-3.959a3.4,3.4,0,0,1,2.228,1.411C52.381,42.328,52.837,41.955,52.787,42ZM68.133,14.471l2.953,1.87-.642,1.014-2.953-1.87ZM44.168,4.394c0-.008,0-.017,0-.025s0-.006,0-.009a.49.49,0,0,1,.489-.471h1.933a1.161,1.161,0,0,0,1.16-1.16V1.86a.512.512,0,0,1,.511-.511h4.644a.512.512,0,0,1,.511.511V2.73a1.161,1.161,0,0,0,1.16,1.16H56.51A.49.49,0,0,1,57,4.361s0,.006,0,.009,0,.016,0,.025V6.377H44.168Zm-6.1,3.332H63.1V19.9L56.037,31.062a.675.675,0,1,0,1.14.722L66.77,16.625l.912.578L55.109,37.057a4.738,4.738,0,0,0-1-.32,4.563,4.563,0,0,1,.332-.63L55.49,34.45a.675.675,0,1,0-1.14-.722L53.3,35.385a5.887,5.887,0,0,0-.751,1.773h0L51.463,41.67a1.4,1.4,0,0,0-.039.332H38.068ZM63.1,42H54.936l2.316-1.866A5.885,5.885,0,0,0,58.534,38.7L63.1,31.486Z" transform="translate(-34.02 0)" fill="#1c1c1c"/></g></g></g></svg>