<svg xmlns="http://www.w3.org/2000/svg" xmlns:xlink="http://www.w3.org/1999/xlink" width="41.44" height="60" viewBox="0 0 41.44 60"><defs><clipPath id="b"><rect width="41.44" height="60"/></clipPath></defs><g id="a" clip-path="url(#b)"><g transform="translate(0 9)"><path d="M39.991,6.144H36.537V4.763a2.763,2.763,0,1,0-5.526,0V6.144H25.485V4.763a2.763,2.763,0,0,0-5.526,0V6.144H14.433V4.763a2.763,2.763,0,1,0-5.526,0V6.144H5.454A3.454,3.454,0,0,0,2,9.6v27.63a3.454,3.454,0,0,0,3.454,3.454H24.795a.691.691,0,1,0,0-1.381H5.454a2.078,2.078,0,0,1-2.072-2.072V15.815H42.063V27.557a.691.691,0,1,0,1.381,0V9.6a3.454,3.454,0,0,0-3.454-3.454Zm-7.6-1.381a1.381,1.381,0,1,1,2.763,0V8.907a1.381,1.381,0,0,1-2.763,0Zm-11.052,0a1.381,1.381,0,0,1,2.763,0V8.907a1.381,1.381,0,0,1-2.763,0Zm-11.052,0a1.381,1.381,0,0,1,2.763,0V8.907a1.381,1.381,0,0,1-2.763,0Zm31.774,9.67H3.381V9.6A2.078,2.078,0,0,1,5.454,7.526H8.907V8.907a2.763,2.763,0,0,0,5.526,0V7.526h5.526V8.907a2.763,2.763,0,0,0,5.526,0V7.526h5.526V8.907a2.763,2.763,0,0,0,5.526,0V7.526h3.454A2.078,2.078,0,0,1,42.063,9.6Z" transform="translate(-2 -2)" fill="#1c1c1c" stroke="#1c1c1c" stroke-width="0.2"/><path d="M27.526,28.381A1.381,1.381,0,0,0,26.144,27H23.381A1.381,1.381,0,0,0,22,28.381v2.072a1.381,1.381,0,0,0,1.381,1.381h2.763a1.381,1.381,0,0,0,1.381-1.381Zm-4.144,2.072V28.381h2.763v2.072Z" transform="translate(-8.185 -9.731)" fill="#1c1c1c" stroke="#1c1c1c" stroke-width="0.2"/><path d="M15.526,28.381A1.381,1.381,0,0,0,14.144,27H11.381A1.381,1.381,0,0,0,10,28.381v2.072a1.381,1.381,0,0,0,1.381,1.381h2.763a1.381,1.381,0,0,0,1.381-1.381Zm-4.144,2.072V28.381h2.763v2.072Z" transform="translate(-4.474 -9.731)" fill="#1c1c1c" stroke="#1c1c1c" stroke-width="0.2"/><path d="M50.144,31.835a1.381,1.381,0,0,0,1.381-1.381V28.381A1.381,1.381,0,0,0,50.144,27H47.381A1.381,1.381,0,0,0,46,28.381v2.072a1.381,1.381,0,0,0,1.381,1.381Zm-2.763-3.454h2.763v2.072H47.381Z" transform="translate(-15.607 -9.731)" fill="#1c1c1c" stroke="#1c1c1c" stroke-width="0.2"/><path d="M27.526,37.381A1.381,1.381,0,0,0,26.144,36H23.381A1.381,1.381,0,0,0,22,37.381v2.072a1.381,1.381,0,0,0,1.381,1.381h2.763a1.381,1.381,0,0,0,1.381-1.381Zm-4.144,2.072V37.381h2.763v2.072Z" transform="translate(-8.185 -12.515)" fill="#1c1c1c" stroke="#1c1c1c" stroke-width="0.2"/><path d="M15.526,37.381A1.381,1.381,0,0,0,14.144,36H11.381A1.381,1.381,0,0,0,10,37.381v2.072a1.381,1.381,0,0,0,1.381,1.381h2.763a1.381,1.381,0,0,0,1.381-1.381Zm-4.144,2.072V37.381h2.763v2.072Z" transform="translate(-4.474 -12.515)" fill="#1c1c1c" stroke="#1c1c1c" stroke-width="0.2"/><path d="M26.144,45H23.381A1.381,1.381,0,0,0,22,46.381v2.072a1.381,1.381,0,0,0,1.381,1.381h2.763a1.381,1.381,0,0,0,1.381-1.381V46.381A1.381,1.381,0,0,0,26.144,45Zm-2.763,3.454V46.381h2.763v2.072Z" transform="translate(-8.185 -15.298)" fill="#1c1c1c" stroke="#1c1c1c" stroke-width="0.2"/><path d="M35.381,31.835h2.763a1.381,1.381,0,0,0,1.381-1.381V28.381A1.381,1.381,0,0,0,38.144,27H35.381A1.381,1.381,0,0,0,34,28.381v2.072A1.381,1.381,0,0,0,35.381,31.835Zm0-3.454h2.763v2.072H35.381Z" transform="translate(-11.896 -9.731)" fill="#1c1c1c" stroke="#1c1c1c" stroke-width="0.2"/><path d="M34,39.454a1.381,1.381,0,0,0,1.381,1.381.691.691,0,0,0,0-1.381V37.381h2.763a.691.691,0,0,0,0-1.381H35.381A1.381,1.381,0,0,0,34,37.381Z" transform="translate(-11.896 -12.515)" fill="#1c1c1c" stroke="#1c1c1c" stroke-width="0.2"/><path d="M14.144,45H11.381A1.381,1.381,0,0,0,10,46.381v2.072a1.381,1.381,0,0,0,1.381,1.381h2.763a1.381,1.381,0,0,0,1.381-1.381V46.381A1.381,1.381,0,0,0,14.144,45Zm-2.763,3.454V46.381h2.763v2.072Z" transform="translate(-4.474 -15.298)" fill="#1c1c1c" stroke="#1c1c1c" stroke-width="0.2"/><path d="M44.98,36a8.98,8.98,0,1,0,8.98,8.98A8.98,8.98,0,0,0,44.98,36Zm0,16.578a7.6,7.6,0,1,1,7.6-7.6,7.6,7.6,0,0,1-7.6,7.6Z" transform="translate(-12.515 -12.515)" fill="#1c1c1c" stroke="#1c1c1c" stroke-width="0.2"/><path d="M50.751,44.717,45.379,50.09l-2.442-2.442a.691.691,0,1,0-.977.977l2.93,2.931a.691.691,0,0,0,.977,0l5.861-5.861a.691.691,0,1,0-.977-.977Z" transform="translate(-14.295 -15.148)" fill="#1c1c1c" stroke="#1c1c1c" stroke-width="0.2"/></g></g></svg>