<svg xmlns="http://www.w3.org/2000/svg" xmlns:xlink="http://www.w3.org/1999/xlink" width="46.05" height="60" viewBox="0 0 46.05 60"><defs><clipPath id="b"><rect width="46.05" height="60"/></clipPath></defs><g id="a" clip-path="url(#b)"><g transform="translate(0 7)"><path d="M197.2,11.984l5.468-4.557h7.159V0H192V7.428h5.2Zm-3.714-6.042V1.486h14.855V5.942H202.13l-3.445,2.871V5.942Zm0,0" transform="translate(-174.174)" fill="#1c1c1c"/><path d="M224,32h1.486v1.486H224Zm0,0" transform="translate(-203.203 -29.029)" fill="#1c1c1c"/><path d="M256,32h5.942v1.486H256Zm0,0" transform="translate(-232.232 -29.029)" fill="#1c1c1c"/><path d="M336,32h1.485v1.486H336Zm0,0" transform="translate(-304.804 -29.029)" fill="#1c1c1c"/><path d="M37.81,153.424l-.6-6.013a5.2,5.2,0,0,0,4.385-5.129v-9.656H38.623V131.6a2.672,2.672,0,0,0-1.447-2.381,4.439,4.439,0,0,0,1.447-3.277v-1.486a4.457,4.457,0,1,0-8.913,0v1.486a4.46,4.46,0,0,0,2.936,4.184l-3.987,3.986H24.495a2.979,2.979,0,0,0-2.138-2.662l-3.045-.869v-1.327a4.441,4.441,0,0,0,1.486-3.313v-1.486a4.457,4.457,0,0,0-8.913,0v1.486a4.444,4.444,0,0,0,1.486,3.313v1.327l-3.045.869a2.982,2.982,0,0,0-2.155,2.857v2.776H5.2v4.457H6.685v11.884H0v1.486H46.051v-1.486ZM31.2,141.54v-3.406l5.263-5.263a2.327,2.327,0,0,0,.658-1.425,1.209,1.209,0,0,1,.021.154v9.2a2.231,2.231,0,0,1-2.228,2.228H28.967V141.54Zm-2.228,5.942h3.784l.594,5.942H28.967Zm5.277,0h1.478l.594,5.942H34.839Zm4.379-6.685v-6.685h1.486v8.17A3.718,3.718,0,0,1,36.395,146H28.967v-1.486h5.942A3.718,3.718,0,0,0,38.623,140.8ZM31.2,125.942v-1.486a2.971,2.971,0,1,1,5.942,0v1.486a2.971,2.971,0,0,1-5.942,0ZM29.275,135.6l4.956-4.956a.833.833,0,0,1,1.178,1.178l-5.263,5.263H22.283a.743.743,0,1,1,0-1.486ZM13.37,124.457a2.971,2.971,0,1,1,5.942,0v1.486a2.971,2.971,0,0,1-5.942,0Zm2.971,5.942a4.434,4.434,0,0,0,1.486-.26v.8a1.9,1.9,0,0,1-1.486.948,1.9,1.9,0,0,1-1.486-.948v-.8A4.434,4.434,0,0,0,16.341,130.4Zm-6.685,3.909a1.492,1.492,0,0,1,1.077-1.429l3.06-.874a3.235,3.235,0,0,0,2.548,1.364A3.233,3.233,0,0,0,18.888,132l3.06.874a1.48,1.48,0,0,1,1.045,1.233h-.711a2.231,2.231,0,0,0-2.228,2.228,2.2,2.2,0,0,0,.137.743H9.656Zm-2.971,4.261H29.71v1.485H6.685Zm1.486,5.942H10.4v-1.486H8.17V141.54H27.482v1.486h-15.6v1.486h15.6v8.913H25.713l-1.486-2.971h-12.8l-1.486,2.971H8.17Zm15.881,8.913H11.6l.743-1.486H23.309Zm0,0" transform="translate(0 -108.859)" fill="#1c1c1c"/></g></g></svg>