<svg xmlns="http://www.w3.org/2000/svg" xmlns:xlink="http://www.w3.org/1999/xlink" width="44.61" height="60" viewBox="0 0 44.61 60"><defs><clipPath id="b"><rect width="44.61" height="60"/></clipPath></defs><g id="a" clip-path="url(#b)"><g transform="translate(0 8)"><path d="M42.453,14.391h-.72V5.756H7.2V0H3.6A3.6,3.6,0,0,0,0,3.6V30.94a3.6,3.6,0,0,0,3.6,3.6H23.025v7.915a2.161,2.161,0,0,0,2.159,2.159H42.453a2.161,2.161,0,0,0,2.159-2.159v-25.9A2.161,2.161,0,0,0,42.453,14.391ZM1.439,3.6A2.161,2.161,0,0,1,3.6,1.439H5.756v25.9H3.6a3.583,3.583,0,0,0-2.159.721ZM3.6,33.1a2.159,2.159,0,0,1,0-4.317H7.2V7.2h33.1v7.2H25.407a8.642,8.642,0,1,0-2.382,9.3v9.4ZM23.025,16.549H17.989V10.114a7.221,7.221,0,0,1,6.02,4.63A2.154,2.154,0,0,0,23.025,16.549Zm-6.476,7.878a7.195,7.195,0,0,1,0-14.318Zm1.439-6.439h5.037V21.57a7.2,7.2,0,0,1-5.037,2.85ZM43.173,42.453a.721.721,0,0,1-.72.72H25.184a.721.721,0,0,1-.72-.72v-25.9a.721.721,0,0,1,.72-.72H42.453a.721.721,0,0,1,.72.72Zm0,0" fill="#1c1c1c"/><path d="M288,199.2h15.83V192H288Zm1.439-5.756h12.952v4.317H289.439Zm0,0" transform="translate(-262.096 -174.731)" fill="#1c1c1c"/><path d="M416,420.317h4.317V416H416Zm1.439-2.878h1.439v1.439h-1.439Zm0,0" transform="translate(-378.584 -378.584)" fill="#1c1c1c"/><path d="M352,420.317h4.317V416H352Zm1.439-2.878h1.439v1.439h-1.439Zm0,0" transform="translate(-320.34 -378.584)" fill="#1c1c1c"/><path d="M288,420.317h4.317V416H288Zm1.439-2.878h1.439v1.439h-1.439Zm0,0" transform="translate(-262.096 -378.584)" fill="#1c1c1c"/><path d="M416,356.317h4.317V352H416Zm1.439-2.878h1.439v1.439h-1.439Zm0,0" transform="translate(-378.584 -320.34)" fill="#1c1c1c"/><path d="M352,356.317h4.317V352H352Zm1.439-2.878h1.439v1.439h-1.439Zm0,0" transform="translate(-320.34 -320.34)" fill="#1c1c1c"/><path d="M288,356.317h4.317V352H288Zm1.439-2.878h1.439v1.439h-1.439Zm0,0" transform="translate(-262.096 -320.34)" fill="#1c1c1c"/><path d="M416,292.317h4.317V288H416Zm1.439-2.878h1.439v1.439h-1.439Zm0,0" transform="translate(-378.584 -262.096)" fill="#1c1c1c"/><path d="M352,292.317h4.317V288H352Zm1.439-2.878h1.439v1.439h-1.439Zm0,0" transform="translate(-320.34 -262.096)" fill="#1c1c1c"/><path d="M288,292.317h4.317V288H288Zm1.439-2.878h1.439v1.439h-1.439Zm0,0" transform="translate(-262.096 -262.096)" fill="#1c1c1c"/><path d="M320,96h10.074v1.439H320Zm0,0" transform="translate(-291.218 -87.365)" fill="#1c1c1c"/><path d="M304,128h11.513v1.439H304Zm0,0" transform="translate(-276.657 -116.487)" fill="#1c1c1c"/></g></g></svg>